<svg width="18" height="19" viewBox="0 0 18 19" fill="none" xmlns="http://www.w3.org/2000/svg">
<g clip-path="url(#clip0)">
<path d="M5.0625 3.5H6.1875V4.0625H11.8125V3.5H12.9375V4.0625H14.625H15.1875V4.625V15.875V16.4375H14.625H3.375H2.8125V15.875V4.625V4.0625H3.375H5.0625V3.5ZM3.9375 5.1875V6.3125H14.0625V5.1875H12.9375V5.75H11.8125V5.1875H6.1875V5.75H5.0625V5.1875H3.9375ZM3.9375 7.4375V15.3125H14.0625V7.4375H3.9375ZM7.3125 8.5625H8.4375V9.6875H7.3125V8.5625ZM9.5625 8.5625H10.6875V9.6875H9.5625V8.5625ZM11.8125 8.5625H12.9375V9.6875H11.8125V8.5625ZM5.0625 10.8125H6.1875V11.9375H5.0625V10.8125ZM7.3125 10.8125H8.4375V11.9375H7.3125V10.8125ZM9.5625 10.8125H10.6875V11.9375H9.5625V10.8125ZM11.8125 10.8125H12.9375V11.9375H11.8125V10.8125ZM5.0625 13.0625H6.1875V14.1875H5.0625V13.0625ZM7.3125 13.0625H8.4375V14.1875H7.3125V13.0625ZM9.5625 13.0625H10.6875V14.1875H9.5625V13.0625Z" fill="#778CA2"/>
</g>
<defs>
<clipPath id="clip0">
<rect width="18" height="19" fill="white"/>
</clipPath>
</defs>
</svg>
