<svg xmlns="http://www.w3.org/2000/svg" width="21" height="13" viewBox="0 0 21 13">
  <g id="Group_265" data-name="Group 265" transform="translate(-1648 -149)">
    <g id="Mastercard-logo" transform="translate(3218.623 -954.748)">
      <g id="Group_53" data-name="Group 53" transform="translate(-1565.624 1106.748)">
        <path id="Path_46" data-name="Path 46" d="M3345.979,2152.926H3343v-5.354h2.974Z" transform="translate(-3338.993 -2146.843)" fill="#96adc6"/>
        <g id="Group_51" data-name="Group 51" transform="translate(0 0)">
          <path id="Path_47" data-name="Path 47" d="M-72.19-58.4a3.4,3.4,0,0,1,1.3-2.677,3.382,3.382,0,0,0-2.1-.728,3.4,3.4,0,0,0-3.4,3.4,3.4,3.4,0,0,0,3.4,3.4,3.382,3.382,0,0,0,2.1-.728,3.4,3.4,0,0,1-1.3-2.677" transform="translate(76.392 61.809)" fill="#778ca2"/>
        </g>
        <g id="Group_52" data-name="Group 52" transform="translate(5.497 0)">
          <path id="Path_48" data-name="Path 48" d="M-94.5-58.4A3.4,3.4,0,0,1-97.9-55a3.383,3.383,0,0,1-2.1-.728A3.4,3.4,0,0,0-98.7-58.4a3.4,3.4,0,0,0-1.3-2.677,3.383,3.383,0,0,1,2.1-.728,3.4,3.4,0,0,1,3.4,3.4" transform="translate(100.001 61.809)" fill="#c3cbd5"/>
        </g>
      </g>
    </g>
    <g id="Rectangle_3" data-name="Rectangle 3" transform="translate(1648 149)" fill="none" stroke="#778ca2" stroke-width="1">
      <rect width="21" height="13" rx="2" stroke="none"/>
      <rect x="0.5" y="0.5" width="20" height="12" rx="1.5" fill="none"/>
    </g>
  </g>
</svg>
