<svg xmlns="http://www.w3.org/2000/svg" width="24" height="26" viewBox="0 0 24 26">
    <g id="Group_310" data-name="Group 310" transform="translate(-10.156 -5.885)">
        <path id="Path_754" data-name="Path 754" d="M65.459,32.391a.417.417,0,0,0-.392-.081l-3.218.981a.418.418,0,1,0,.243.8l2.6-.791L64.3,36.225a.418.418,0,0,0,.359.47.452.452,0,0,0,.056,0,.418.418,0,0,0,.413-.363l.477-3.57A.419.419,0,0,0,65.459,32.391Z" transform="translate(-35.87 -18.637)" fill="#778ca2" />
        <path id="Path_755" data-name="Path 755" d="M40.033,46.821a7.43,7.43,0,0,0-7.714,0,3.138,3.138,0,0,0,0,5.564,7.43,7.43,0,0,0,7.714,0,3.138,3.138,0,0,0,0-5.564Zm-.466,4.87a6.6,6.6,0,0,1-6.781,0,2.314,2.314,0,0,1,0-4.176,6.6,6.6,0,0,1,6.781,0,2.314,2.314,0,0,1,0,4.176Z" transform="translate(-14.232 -28.147)" fill="#778ca2" />
        <path id="Path_756" data-name="Path 756" d="M41.138,54.27a1.33,1.33,0,1,0,1.33,1.33A1.332,1.332,0,0,0,41.138,54.27Zm0,1.825a.494.494,0,1,1,.494-.494A.5.5,0,0,1,41.138,56.095Z" transform="translate(-20.705 -34.138)" fill="#778ca2" />
        <path id="Path_757" data-name="Path 757" d="M51.176,54.27a1.33,1.33,0,1,0,1.33,1.33A1.332,1.332,0,0,0,51.176,54.27Zm0,1.825a.494.494,0,1,1,.494-.494A.5.5,0,0,1,51.176,56.095Z" transform="translate(-27.715 -34.138)" fill="#778ca2" />
        <path id="Path_758" data-name="Path 758" d="M31.108,25.57a.416.416,0,0,0-.045-.075,11.559,11.559,0,0,0-.422-16.171,12.188,12.188,0,0,0-16.971,0,11.559,11.559,0,0,0-.422,16.171.434.434,0,0,0-.045.075l-1.47,3.175a2.008,2.008,0,0,0,.852,2.733l.313.165a2.1,2.1,0,0,0,1.578.155,2.051,2.051,0,0,0,1.21-.95l1.876-2.367a12.324,12.324,0,0,0,9.185,0l1.876,2.367a2.084,2.084,0,0,0,1.811,1.036,2.106,2.106,0,0,0,.977-.241l.313-.165a2.008,2.008,0,0,0,.852-2.733ZM21.843,6.833h.21L22.44,10.2h-.986ZM15,30.365a.434.434,0,0,0-.039.058,1.211,1.211,0,0,1-.725.58,1.242,1.242,0,0,1-.932-.092l-.313-.164a1.186,1.186,0,0,1-.5-1.622L12.5,29.1l1.376-2.974a12.013,12.013,0,0,0,2.894,2ZM11,17.626A11.019,11.019,0,0,1,21,6.774l-.438,3.8a.41.41,0,0,0,.105.323.429.429,0,0,0,.316.139h1.935a.428.428,0,0,0,.316-.139.408.408,0,0,0,.105-.323L22.9,6.739A11.029,11.029,0,0,1,33.308,17.626a11.155,11.155,0,0,1-22.3,0ZM31.324,30.747l-.313.164a1.239,1.239,0,0,1-1.658-.488.463.463,0,0,0-.038-.058L27.54,28.126a12.019,12.019,0,0,0,2.894-2L31.81,29.1c0,.009.008.017.012.025A1.185,1.185,0,0,1,31.324,30.747Z" transform="translate(0 0)" fill="#778ca2" />
        <path id="Path_759" data-name="Path 759" d="M25.707,33.3l2.6.791a.418.418,0,0,0,.244-.8l-3.218-.982a.418.418,0,0,0-.536.455l.477,3.57a.418.418,0,0,0,.414.363.443.443,0,0,0,.056,0,.418.418,0,0,0,.359-.47Z" transform="translate(-10.212 -18.637)" fill="#778ca2" />
    </g>
</svg>