<svg xmlns="http://www.w3.org/2000/svg" width="18" height="18" viewBox="0 0 18 18">
  <g id="noun_notification_640091" transform="translate(-5.5 -5.5)">
    <g id="Group_263" data-name="Group 263" transform="translate(5.5 5.5)">
      <path id="Path_731" data-name="Path 731" d="M57,5.5A4.5,4.5,0,1,0,61.5,10,4.5,4.5,0,0,0,57,5.5Z" transform="translate(-43.5 -5.5)" fill="#fe4d97"/>
      <path id="Path_732" data-name="Path 732" d="M9.606,23.5h9.789A4.109,4.109,0,0,0,23.5,19.394V15.552a.789.789,0,1,0-1.578,0v3.843a2.551,2.551,0,0,1-2.548,2.548H9.606a2.551,2.551,0,0,1-2.548-2.548V9.606A2.551,2.551,0,0,1,9.606,7.057h3.843a.79.79,0,0,0,.789-.789.76.76,0,0,0-.789-.769H9.606A4.109,4.109,0,0,0,5.5,9.606v9.789A4.109,4.109,0,0,0,9.606,23.5Z" transform="translate(-5.5 -5.5)"/>
    </g>
  </g>
</svg>
