<svg xmlns="http://www.w3.org/2000/svg" width="41" height="28" viewBox="0 0 41 28">
  <g id="Icons_Visa" data-name="Icons/Visa" transform="translate(-0.882)">
    <rect id="bg" width="41" height="28" rx="4" transform="translate(0.882)" fill="#f8fafb"/>
    <g id="Visa" transform="translate(7.504 9.133)">
      <path id="Shape" d="M0,7.855,1.385,0H3.55L2.208,7.855Z" transform="translate(10.001 0.262)" fill="#3c58bf"/>
      <path id="Shape-2" data-name="Shape" d="M0,7.855,1.775,0H3.55L2.208,7.855Z" transform="translate(10.001 0.262)" fill="#293688"/>
      <path id="Shape-3" data-name="Shape" d="M6.624.349A5.453,5.453,0,0,0,4.632,0C2.468,0,.909,1.091.909,2.662c0,1.178,1.082,1.789,1.948,2.182s1.126.655,1.126,1c0,.524-.693.785-1.3.785A4.674,4.674,0,0,1,.606,6.2L.3,6.065,0,7.855a6.971,6.971,0,0,0,2.468.436c2.295,0,3.81-1.091,3.81-2.749,0-.916-.563-1.615-1.862-2.182-.779-.393-1.255-.611-1.255-1,0-.349.39-.7,1.255-.7a3.944,3.944,0,0,1,1.645.305l.216.087.346-1.7Z" transform="translate(13.421)" fill="#3c58bf"/>
      <path id="Shape-4" data-name="Shape" d="M6.624.349A5.453,5.453,0,0,0,4.632,0C2.468,0,1.3,1.091,1.3,2.662A2.279,2.279,0,0,0,2.857,4.844c.866.393,1.126.655,1.126,1,0,.524-.693.785-1.3.785A4.674,4.674,0,0,1,.606,6.2L.3,6.065,0,7.855a6.971,6.971,0,0,0,2.468.436c2.295,0,3.81-1.091,3.81-2.749,0-.916-.563-1.615-1.862-2.182-.779-.393-1.255-.611-1.255-1,0-.349.39-.7,1.255-.7a3.944,3.944,0,0,1,1.645.305l.216.087.346-1.7Z" transform="translate(13.421)" fill="#293688"/>
      <path id="Shape-5" data-name="Shape" d="M2.338,7.855H0L3.247.567C3.464.041,3.85,0,4.372,0H6.061L7.879,7.853H5.8l-.26-1.309H2.771L2.338,7.854ZM4.546,2.138c-.125.3-.3.765-.3.785s-.738,1.925-.866,2.313V5.28H5.195c-.086-.433-.515-2.381-.519-2.4Z" transform="translate(19.395 0.262)" fill="#3c58bf"/>
      <path id="Shape-6" data-name="Shape" d="M2.338,7.855H0L3.766.567C3.984.041,4.37,0,4.892,0H6.061L7.879,7.853H5.8l-.26-1.309H2.771L2.338,7.854ZM4.546,2.138c-.125.3-.3.765-.3.785s-.7,1.882-.866,2.313V5.28H5.195c-.086-.433-.515-2.381-.519-2.4Z" transform="translate(19.395 0.262)" fill="#293688"/>
      <path id="Shape-7" data-name="Shape" d="M3.247,5.455,3.03,4.32A6.31,6.31,0,0,0,0,.873L1.948,7.855H4.286L7.793,0H5.455Z" transform="translate(2.771 0.305)" fill="#3c58bf"/>
      <path id="Shape-8" data-name="Shape" d="M3.247,5.455,3.03,4.32A6.31,6.31,0,0,0,0,.873L1.948,7.855H4.286L7.793,0h-1.9Z" transform="translate(2.771 0.305)" fill="#293688"/>
      <path id="Shape-9" data-name="Shape" d="M0,0,.39.087A7.313,7.313,0,0,1,5.8,4.364L5.022.655C4.892.131,4.5,0,4.026,0H0Z" transform="translate(0 0.262)" fill="#ffbc00"/>
      <path id="Shape-10" data-name="Shape" d="M0,0H0C2.771.655,5.065,2.356,5.8,4.32l-.736-3.1A1.058,1.058,0,0,0,4.026.393Z" transform="translate(0 0.262)" fill="#f7981d"/>
      <path id="Shape-11" data-name="Shape" d="M0,0H0C2.771.655,5.065,2.356,5.8,4.32l-.52-1.7a1.538,1.538,0,0,0-.909-1.265Z" transform="translate(0 0.262)" fill="#ed7c00"/>
      <g id="Group" transform="translate(2.814 1.135)">
        <path id="Shape-12" data-name="Shape" d="M5.368,4.364,3.9,2.88,3.2,4.538,3.03,3.447A6.31,6.31,0,0,0,0,0L1.948,6.982H4.286Z" fill="#051244"/>
        <path id="Shape-13" data-name="Shape" d="M2.208,1.92.346,0,0,1.92Z" transform="translate(7.187 5.062)" fill="#051244"/>
        <path id="Shape-14" data-name="Shape" d="M3.766,0h0c.173.175.26.305.216.48,0,.524-.693.785-1.3.785A4.674,4.674,0,0,1,.606.829L.3.7,0,2.487a6.971,6.971,0,0,0,2.468.436,4.266,4.266,0,0,0,3.16-1.091Z" transform="translate(10.607 4.276)" fill="#051244"/>
        <path id="Shape-15" data-name="Shape" d="M0,5.716H2.035l.433-1.309H5.238L5.5,5.716H7.576L6.84,2.531,4.243,0l.13.7s.433,1.964.52,2.4H3.074C3.247,2.662,3.94.785,3.94.785s.173-.48.3-.785" transform="translate(16.884 1.265)" fill="#051244"/>
      </g>
    </g>
  </g>
</svg>
