<svg id="Visa" xmlns="http://www.w3.org/2000/svg" width="48" height="32" viewBox="0 0 48 32">
  <rect id="bg" width="48" height="32" rx="4" fill="#fff" opacity="0.15"/>
  <g id="Visa_Inc._logo" transform="translate(9 11)">
    <path id="polygon9" d="M435.937,120.041h-2.43l1.52-9.315h2.43Z" transform="translate(-422.938 -110.558)" fill="#fff"/>
    <path id="path11" d="M572.468,105.444a6.036,6.036,0,0,0-2.18-.4c-2.4,0-4.09,1.268-4.1,3.082-.02,1.338,1.21,2.081,2.13,2.527.94.456,1.26.753,1.26,1.16-.01.624-.76.912-1.459.912a4.872,4.872,0,0,1-2.28-.5l-.32-.149-.34,2.091a7.455,7.455,0,0,0,2.71.5c2.55,0,4.21-1.249,4.23-3.181.01-1.06-.64-1.873-2.04-2.537-.85-.426-1.37-.714-1.37-1.15.01-.4.44-.8,1.4-.8a4.16,4.16,0,0,1,1.81.357l.22.1.331-2.011Z" transform="translate(-550.66 -105.048)" fill="#fff"/>
    <path id="path13" d="M794.282,116.742c.2-.535.97-2.606.97-2.606-.01.02.2-.545.32-.892l.17.8s.46,2.23.56,2.7Zm3-6.015H795.4a1.2,1.2,0,0,0-1.27.773l-3.609,8.542h2.55l.51-1.4h3.12c.07.327.29,1.4.29,1.4h2.25l-1.961-9.314Z" transform="translate(-769.243 -110.558)" fill="#fff"/>
    <path id="path15" d="M171.835,110.727l-2.38,6.352-.26-1.288a7.147,7.147,0,0,0-3.36-3.9l2.18,8.146h2.57l3.82-9.3Z" transform="translate(-163.296 -110.558)" fill="#fff"/>
    <path id="path17" d="M85.116,110.727h-3.91l-.04.188a8.111,8.111,0,0,1,5.9,4.876l-.85-4.281a1,1,0,0,0-1.1-.783Z" transform="translate(-81.166 -110.558)" fill="#d6dbe2"/>
  </g>
</svg>
