<svg xmlns="http://www.w3.org/2000/svg" xmlns:xlink="http://www.w3.org/1999/xlink" width="40" height="40" viewBox="0 0 40 40">
  <defs>
    <clipPath id="clip-path">
      <circle id="Mask" cx="20" cy="20" r="20" fill="#748169"/>
    </clipPath>
  </defs>
  <g id="Group_312" data-name="Group 312" transform="translate(-879 -375)">
    <g id="Group_277" data-name="Group 277" transform="translate(0 137)">
      <g id="Ico" transform="translate(879 238)">
        <g id="bg">
          <circle id="Mask-2" data-name="Mask" cx="20" cy="20" r="20" fill="#748169"/>
        </g>
      </g>
    </g>
    <g id="noun_Download_11405" transform="translate(880.631 384)">
      <path id="Path_745" data-name="Path 745" d="M27.147,47.158a.23.23,0,0,1,.222.236V59.375a.23.23,0,0,1-.222.236H9.591a.23.23,0,0,1-.222-.236V47.394a.23.23,0,0,1,.222-.236h2.185a.23.23,0,0,1,.222.236v9.185a.23.23,0,0,0,.222.236h12.3a.23.23,0,0,0,.222-.236V47.394a.23.23,0,0,1,.222-.236Z" transform="translate(0 -37.611)" fill="#fff"/>
      <path id="Path_746" data-name="Path 746" d="M29.284,5.524a.2.2,0,0,0-.3.006L25.14,9.983c-.082.095-.149.066-.149-.063V.236A.228.228,0,0,0,24.773,0H22.45a.228.228,0,0,0-.219.236v9.69c0,.13-.067.158-.149.063L18.239,5.531a.2.2,0,0,0-.3-.006L16.291,7.3a.261.261,0,0,0-.006.339l7.174,8.318a.191.191,0,0,0,.3,0l7.177-8.318a.261.261,0,0,0-.006-.339Z" transform="translate(-5.241)" fill="#fff"/>
    </g>
  </g>
</svg>
