<svg xmlns="http://www.w3.org/2000/svg" width="26" height="24.916" viewBox="0 0 26 24.916">
    <g id="noun_finance_3615758" transform="translate(0 -1)">
        <path id="Path_2" data-name="Path 2" d="M29.91,23H27.074A1.074,1.074,0,0,0,26,24.074V25.8a1.074,1.074,0,0,0,1.074,1.074H29.91A1.074,1.074,0,0,0,30.985,25.8V24.074A1.074,1.074,0,0,0,29.91,23Zm-.033,2.769-2.769.033-.033-1.695,2.8-.033Z" transform="translate(-11.99 -10.132)" fill="#fff" />
        <path id="Path_3" data-name="Path 3" d="M16.523,40H6.554a.554.554,0,0,0,0,1.108h9.969a.554.554,0,1,0,0-1.108Z" transform="translate(-2.677 -17.961)" fill="#fff" />
        <path id="Path_4" data-name="Path 4" d="M6.554,36.108h5.538a.554.554,0,0,0,0-1.108H6.554a.554.554,0,0,0,0,1.108Z" transform="translate(-2.677 -15.603)" fill="#fff" />
        <path id="Path_5" data-name="Path 5" d="M24.158,1H6.175A1.869,1.869,0,0,0,4.333,2.89V9.666H1.841A1.869,1.869,0,0,0,0,11.557V24.015a1.869,1.869,0,0,0,1.842,1.9H19.824a1.869,1.869,0,0,0,1.842-1.89V17.25h2.492A1.869,1.869,0,0,0,26,15.359V2.9A1.869,1.869,0,0,0,24.158,1ZM5.416,5.333h19.5V6.958H5.416Zm.758-3.25H24.158a.785.785,0,0,1,.758.807V4.25H5.416V2.89a.785.785,0,0,1,.758-.807ZM20.583,24.026a.785.785,0,0,1-.758.807H1.841a.785.785,0,0,1-.758-.807V11.568a.785.785,0,0,1,.758-.818H19.824a.785.785,0,0,1,.758.807Zm3.575-7.859H21.666V11.557a1.869,1.869,0,0,0-1.842-1.89H5.416V8.042h19.5v7.318A.785.785,0,0,1,24.158,16.166Z" transform="translate(0)" fill="#fff" />
    </g>
</svg>