<svg xmlns="http://www.w3.org/2000/svg" width="18" height="21" viewBox="0 0 18 21">
  <path id="Path_749" data-name="Path 749" d="M10.626,6.987a.705.705,0,0,1,.4.143.839.839,0,0,1-.157,1.411l-.061.028a7.421,7.421,0,0,0-4.034,5.1,7.437,7.437,0,0,0,4.434,8.208,7.567,7.567,0,0,0,8.056-1.657,7.383,7.383,0,0,0,1.306-8.368,7.44,7.44,0,0,0-3.486-3.325,1,1,0,0,1-.473-.733.853.853,0,0,1,1.237-.7A9.045,9.045,0,0,1,22.9,13.812a8.964,8.964,0,0,1-2.852,7.907,9.29,9.29,0,0,1-9.861,1.48,9.061,9.061,0,0,1-5.041-9.741A9.07,9.07,0,0,1,10.1,7.109a1.15,1.15,0,0,1,.527-.123ZM14.042,3a.657.657,0,0,1,.25.056.824.824,0,0,1,.511.65.85.85,0,0,1,.007.1V11.9a.693.693,0,0,1-.078.345.858.858,0,0,1-1.4.131.843.843,0,0,1-.156-.476V3.81a.638.638,0,0,1,.04-.25.833.833,0,0,1,.676-.552.654.654,0,0,1,.154,0Z" transform="translate(-4.992 -3)" fill="#778ca2"/>
</svg>
