<svg xmlns="http://www.w3.org/2000/svg" width="26" height="26" viewBox="0 0 26 26">
    <g id="noun_Settings_3612544" transform="translate(-9.844 -53.178)">
        <path id="Path_11" data-name="Path 11" d="M321.6,326.939a5.256,5.256,0,1,0-4.857-3.25,5.254,5.254,0,0,0,4.857,3.25Zm-3.769-3.7a4.08,4.08,0,1,1,5.328,2.2h0a4.069,4.069,0,0,1-5.328-2.2Z" transform="translate(-298.759 -255.502)" fill="#778ca2" />
        <path id="Path_12" data-name="Path 12" d="M78.927,69.192a1.722,1.722,0,0,0-.933-.934l-1.109-.451a10.7,10.7,0,0,0,0-3.249l1.106-.459a1.725,1.725,0,0,0,.928-2.248l-.706-1.707a1.709,1.709,0,0,0-1.586-1.062,1.671,1.671,0,0,0-.659.133l-1.106.459a10.922,10.922,0,0,0-2.3-2.3l.459-1.1a1.687,1.687,0,0,0,0-1.318,1.712,1.712,0,0,0-.93-.931l-1.69-.707a1.714,1.714,0,0,0-2.247.928l-.467,1.1a10.863,10.863,0,0,0-3.247,0l-.461-1.107a1.714,1.714,0,0,0-2.247-.928l-1.706.707a1.723,1.723,0,0,0-.933,2.248l.459,1.107a10.922,10.922,0,0,0-2.3,2.3l-1.1-.459a1.693,1.693,0,0,0-.661-.133A1.712,1.712,0,0,0,53.9,60.142l-.7,1.7a1.687,1.687,0,0,0,0,1.318,1.708,1.708,0,0,0,.933.931l1.1.459a10.722,10.722,0,0,0,0,3.251l-1.114.464a1.712,1.712,0,0,0-.93.931,1.68,1.68,0,0,0,0,1.315l.706,1.707a1.709,1.709,0,0,0,1.586,1.062,1.67,1.67,0,0,0,.659-.133l1.106-.459a10.922,10.922,0,0,0,2.3,2.3l-.459,1.107a1.725,1.725,0,0,0,.928,2.248l1.706.707a1.693,1.693,0,0,0,.661.133,1.712,1.712,0,0,0,1.586-1.062l.459-1.107a10.863,10.863,0,0,0,3.247,0l.459,1.107a1.714,1.714,0,0,0,2.247.928l1.706-.707a1.723,1.723,0,0,0,.933-2.248l-.459-1.107a10.921,10.921,0,0,0,2.3-2.3l1.106.459a1.693,1.693,0,0,0,.661.133,1.712,1.712,0,0,0,1.586-1.062l.707-1.707a1.669,1.669,0,0,0,0-1.315ZM55.052,71.744l-.706-1.7a.482.482,0,0,1,0-.365.461.461,0,0,1,.259-.256l1.568-.651a.628.628,0,0,0,.371-.688v-.005a9.654,9.654,0,0,1,0-3.771.615.615,0,0,0-.373-.7L54.6,62.956h0a.461.461,0,0,1-.256-.259.475.475,0,0,1,0-.363l.706-1.712v0a.466.466,0,0,1,.621-.251l1.565.651a.617.617,0,0,0,.757-.227,9.581,9.581,0,0,1,2.666-2.667.62.62,0,0,0,.229-.757L60.238,55.8a.475.475,0,0,1,0-.363.482.482,0,0,1,.259-.259l1.706-.707.008,0a.432.432,0,0,1,.176-.035.477.477,0,0,1,.437.293l.651,1.568a.624.624,0,0,0,.7.371,9.73,9.73,0,0,1,3.767,0,.619.619,0,0,0,.7-.373l.651-1.568v0a.469.469,0,0,1,.437-.291.49.49,0,0,1,.181.037h0l1.709.7a.461.461,0,0,1,.256.259.475.475,0,0,1,0,.363l-.645,1.558a.618.618,0,0,0,.227.757,9.58,9.58,0,0,1,2.666,2.667.62.62,0,0,0,.757.229l1.568-.651.008,0a.432.432,0,0,1,.176-.035.477.477,0,0,1,.437.293l.706,1.707a.482.482,0,0,1,0,.365.473.473,0,0,1-.259.259l-1.568.656a.628.628,0,0,0-.371.688v.005a9.654,9.654,0,0,1,0,3.771.615.615,0,0,0,.373.7l1.568.651h0a.461.461,0,0,1,.256.259.475.475,0,0,1,0,.363l-.706,1.707v0a.466.466,0,0,1-.621.251l-1.565-.651a.621.621,0,0,0-.757.227,9.581,9.581,0,0,1-2.666,2.667.62.62,0,0,0-.229.757l.651,1.568a.475.475,0,0,1,0,.363.482.482,0,0,1-.259.259l-1.706.707-.008,0a.432.432,0,0,1-.176.035.477.477,0,0,1-.437-.293l-.651-1.566a.621.621,0,0,0-.573-.387.5.5,0,0,0-.128.013,9.717,9.717,0,0,1-3.764,0,.615.615,0,0,0-.7.373l-.651,1.568v0a.469.469,0,0,1-.437.291.49.49,0,0,1-.181-.037h0l-1.706-.7a.479.479,0,0,1-.259-.621l.648-1.563a.618.618,0,0,0-.227-.757A9.58,9.58,0,0,1,58,71.582a.62.62,0,0,0-.757-.229L55.676,72l-.008,0a.432.432,0,0,1-.176.035.484.484,0,0,1-.44-.3Z" transform="translate(-43.217 0)" fill="#778ca2" />
    </g>
</svg>