<svg xmlns="http://www.w3.org/2000/svg" width="21" height="13" viewBox="0 0 21 13">
  <g id="Group_264" data-name="Group 264" transform="translate(-1648 -131)">
    <g id="Visa_Inc._logo" transform="translate(1650 135)">
      <path id="polygon9" d="M434.777,115.594h-1.27l.794-4.867h1.27Z" transform="translate(-427.985 -110.639)" fill="#778ca2"/>
      <path id="path11" d="M568.987,105.255a3.154,3.154,0,0,0-1.139-.207c-1.254,0-2.137.663-2.142,1.61-.01.7.632,1.087,1.113,1.32s.658.394.658.606c-.005.326-.4.476-.763.476a2.546,2.546,0,0,1-1.191-.259l-.167-.078-.178,1.092a3.9,3.9,0,0,0,1.416.259c1.332,0,2.2-.652,2.21-1.662.005-.554-.334-.979-1.066-1.325-.444-.223-.716-.373-.716-.6.005-.207.23-.419.731-.419a2.174,2.174,0,0,1,.946.186l.115.052.173-1.051Z" transform="translate(-557.593 -105.048)" fill="#778ca2"/>
      <path id="path13" d="M792.486,113.87c.1-.28.507-1.362.507-1.362s.1-.285.167-.466l.089.419s.24,1.165.293,1.408Zm1.567-3.143h-.982a.627.627,0,0,0-.664.4l-1.886,4.463h1.332l.266-.73h1.63c.036.171.152.73.152.73h1.176l-1.024-4.867Z" transform="translate(-779.404 -110.639)" fill="#778ca2"/>
      <path id="path15" d="M168.97,110.727l-1.243,3.319-.136-.673a3.734,3.734,0,0,0-1.755-2.04l1.139,4.256h1.343l2-4.862Z" transform="translate(-164.509 -110.639)" fill="#778ca2"/>
      <path id="path17" d="M83.229,110.727H81.187l-.021.1a4.238,4.238,0,0,1,3.083,2.548l-.444-2.237a.525.525,0,0,0-.575-.409Z" transform="translate(-81.166 -110.639)" fill="#c3cbd5"/>
    </g>
    <g id="Rectangle_2" data-name="Rectangle 2" transform="translate(1648 131)" fill="none" stroke="#778ca2" stroke-width="1">
      <rect width="21" height="13" rx="2" stroke="none"/>
      <rect x="0.5" y="0.5" width="20" height="12" rx="1.5" fill="none"/>
    </g>
  </g>
</svg>
