<svg xmlns="http://www.w3.org/2000/svg" width="440" height="296" viewBox="0 0 440 296">
  <g id="Group_270" data-name="Group 270" transform="translate(-913 -263.083)">
    <path id="Path" d="M124.655,28.647A103.741,103.741,0,0,0,0,14.61C39.953,28.913,84.037,29.438,124.655,28.647Z" transform="translate(963.819 263.083)" fill="#ffab2b" opacity="0.1"/>
    <path id="Shape" d="M72.865,97.285H55.888A1.394,1.394,0,0,1,54.5,95.892V88.1A1.4,1.4,0,0,0,53.1,86.71H36.959A1.39,1.39,0,0,0,35.57,88.1v7.795a1.394,1.394,0,0,1-1.392,1.392H17.2a1.394,1.394,0,0,1-1.389-1.392V79.764a1.4,1.4,0,0,0-1.392-1.392H1.386A1.389,1.389,0,0,1,.2,76.269L43.828.7a1.388,1.388,0,0,1,2.41,0l43.63,75.569a1.393,1.393,0,0,1-1.2,2.087H75.65a1.394,1.394,0,0,0-1.392,1.392V95.892A1.394,1.394,0,0,1,72.865,97.285ZM62.012,82.267a1.392,1.392,0,1,0,0,2.785h6.108a1.393,1.393,0,0,0,.984-.42l.025.013a1.392,1.392,0,0,0-.984-2.377Zm-40.083,0a1.392,1.392,0,1,0,0,2.785h6.112a1.4,1.4,0,0,0,.985-.42l.013.013a1.393,1.393,0,0,0-.985-2.377Z" transform="translate(1230.17 447.322)" fill="#ffab2b" opacity="0.1"/>
    <path id="Shape-2" data-name="Shape" d="M66.721,97.28H49.733a1.4,1.4,0,0,1-1.262-.807,1.377,1.377,0,0,1-.131-.585V88.1a1.4,1.4,0,0,0-1.388-1.392H30.809A1.394,1.394,0,0,0,29.417,88.1v3.218a67.574,67.574,0,0,1-10.1-6.28h2.591a1.392,1.392,0,1,0,0-2.785H15.77A115.367,115.367,0,0,1,0,65.967L37.686.695a1.393,1.393,0,0,1,2.411,0l43.629,75.57a1.393,1.393,0,0,1-1.206,2.091H69.5A1.394,1.394,0,0,0,68.1,79.748V95.88a1.339,1.339,0,0,1-.282.842A1.367,1.367,0,0,1,66.721,97.28ZM54.887,82.646h0a1.393,1.393,0,0,0,.985,2.377H62a1.392,1.392,0,1,0,0-2.785H55.875a1.392,1.392,0,0,0-.984.42Zm-27.4-41.312a1.394,1.394,0,0,0-1.392,1.392V53.3a1.394,1.394,0,0,0,1.392,1.392h22.82A1.4,1.4,0,0,0,51.693,53.3V42.727a1.394,1.394,0,0,0-1.388-1.392Z" transform="translate(966.637 447.991)" fill="#ffab2b" opacity="0.1"/>
    <path id="Shape-3" data-name="Shape" d="M170.056,184.821H135.841a.574.574,0,0,1-.568-.568V163.4a.569.569,0,0,0-.568-.568H120.251a.569.569,0,0,0-.563.568v20.856a.574.574,0,0,1-.568.568H51.5a.57.57,0,0,1-.563-.568V163.4a.573.573,0,0,0-.568-.568H35.915a.573.573,0,0,0-.568.568v20.856a.569.569,0,0,1-.568.568H.563A.57.57,0,0,1,0,184.253V29.231a.569.569,0,0,1,.563-.568H52.047V16.986a2.8,2.8,0,0,1,2.794-2.793H73.48V1.759A1.76,1.76,0,0,1,75.237,0H95.66a1.761,1.761,0,0,1,1.759,1.759V14.2h15.854a2.8,2.8,0,0,1,2.793,2.794V28.668h53.99a.573.573,0,0,1,.568.568V184.253A.574.574,0,0,1,170.056,184.821ZM7.526,147.812a.569.569,0,0,0-.568.568v7.205a.562.562,0,0,0,.562.563H28.659a.564.564,0,0,0,.564-.563V148.38a.569.569,0,0,0-.564-.568Zm50.1,0a.573.573,0,0,0-.568.568v7.2a.569.569,0,0,0,.568.564H78.758a.57.57,0,0,0,.4-.164.56.56,0,0,0,.167-.4v-7.2a.569.569,0,0,0-.568-.568Zm34.236,0a.574.574,0,0,0-.568.568v7.2a.57.57,0,0,0,.568.563H113a.564.564,0,0,0,.568-.563v-7.2a.569.569,0,0,0-.568-.568Zm50.1,0a.569.569,0,0,0-.568.568v7.193a.571.571,0,0,0,.167.4.561.561,0,0,0,.4.163H163.1a.57.57,0,0,0,.568-.563l0-7.193a.573.573,0,0,0-.568-.568ZM7.522,129.152a.564.564,0,0,0-.564.568v7.214a.557.557,0,0,0,.165.4.564.564,0,0,0,.4.165H28.659a.564.564,0,0,0,.564-.568V129.72a.568.568,0,0,0-.164-.4.56.56,0,0,0-.4-.167H7.522Zm50.1,0a.567.567,0,0,0-.568.568v7.21a.565.565,0,0,0,.568.568H78.764a.558.558,0,0,0,.4-.165.564.564,0,0,0,.165-.4v-7.21a.567.567,0,0,0-.165-.4.561.561,0,0,0-.4-.166Zm34.236,0a.568.568,0,0,0-.568.568v7.206a.568.568,0,0,0,.568.568H113a.564.564,0,0,0,.568-.568V129.72a.567.567,0,0,0-.165-.4.561.561,0,0,0-.4-.166Zm50.1,0a.557.557,0,0,0-.4.166.565.565,0,0,0-.166.4v7.2a.561.561,0,0,0,.166.4.567.567,0,0,0,.4.165H163.1a.569.569,0,0,0,.568-.568l0-7.2a.569.569,0,0,0-.568-.568H141.962ZM7.526,110.5a.569.569,0,0,0-.568.568v7.219a.567.567,0,0,0,.568.568H28.659a.57.57,0,0,0,.564-.568v-7.219a.57.57,0,0,0-.564-.568Zm50.1,0a.574.574,0,0,0-.568.568v7.214a.573.573,0,0,0,.568.568H78.758a.569.569,0,0,0,.568-.568v-7.214a.569.569,0,0,0-.568-.568Zm34.236,0a.576.576,0,0,0-.568.568v7.21a.574.574,0,0,0,.568.568H113a.569.569,0,0,0,.568-.568v-7.21A.569.569,0,0,0,113,110.5Zm50.1,0a.569.569,0,0,0-.568.568v7.206a.569.569,0,0,0,.568.568H163.1a.576.576,0,0,0,.568-.568l0-7.206a.574.574,0,0,0-.568-.568ZM7.522,91.866a.564.564,0,0,0-.564.568v7.2a.564.564,0,0,0,.564.568H28.659a.571.571,0,0,0,.4-.166.564.564,0,0,0,.164-.4v-7.2a.564.564,0,0,0-.164-.4.571.571,0,0,0-.4-.166H7.522Zm50.1,0a.567.567,0,0,0-.568.568v7.2a.571.571,0,0,0,.166.4.565.565,0,0,0,.4.166H78.758a.562.562,0,0,0,.568-.568v-7.2a.567.567,0,0,0-.165-.4.561.561,0,0,0-.4-.166Zm34.236,0a.568.568,0,0,0-.568.568v7.193a.567.567,0,0,0,.568.568H113a.558.558,0,0,0,.4-.165.564.564,0,0,0,.165-.4V92.434a.567.567,0,0,0-.165-.4.561.561,0,0,0-.4-.166Zm50.1,0a.557.557,0,0,0-.4.166.565.565,0,0,0-.166.4v7.189a.565.565,0,0,0,.166.4.557.557,0,0,0,.4.166H163.1a.569.569,0,0,0,.568-.568l0-7.189a.569.569,0,0,0-.568-.568H141.962ZM7.52,73.206a.562.562,0,0,0-.562.563v7.218a.569.569,0,0,0,.568.568H28.659a.569.569,0,0,0,.564-.568V73.769a.564.564,0,0,0-.564-.563H7.52Zm50.106,0a.569.569,0,0,0-.568.563v7.214a.574.574,0,0,0,.568.568H78.758a.569.569,0,0,0,.568-.568V73.769a.562.562,0,0,0-.562-.563H57.625Zm34.236,0a.57.57,0,0,0-.568.563v7.21a.576.576,0,0,0,.568.568H113a.569.569,0,0,0,.568-.568v-7.21a.571.571,0,0,0-.166-.4.561.561,0,0,0-.4-.163H91.861Zm50.1,0a.561.561,0,0,0-.4.163.571.571,0,0,0-.167.4v7.205a.569.569,0,0,0,.568.568H163.1a.574.574,0,0,0,.568-.568l0-7.205a.569.569,0,0,0-.568-.563H141.959Zm.006-18.652a.569.569,0,0,0-.568.568V62.34a.571.571,0,0,0,.167.4.561.561,0,0,0,.4.163H163.1a.567.567,0,0,0,.564-.576l0-7.205a.573.573,0,0,0-.568-.568Zm-134.439,0a.569.569,0,0,0-.568.568V62.34a.562.562,0,0,0,.562.563H28.659a.564.564,0,0,0,.564-.563V55.122a.569.569,0,0,0-.564-.568Zm50.1,0a.573.573,0,0,0-.568.568v7.214a.569.569,0,0,0,.568.564H78.758a.574.574,0,0,0,.4-.164.56.56,0,0,0,.167-.4V55.122a.569.569,0,0,0-.568-.568Zm34.236,0a.574.574,0,0,0-.568.568v7.21a.57.57,0,0,0,.568.563H113a.564.564,0,0,0,.568-.563v-7.21a.569.569,0,0,0-.568-.568ZM7.522,35.919a.564.564,0,0,0-.564.568v7.2a.557.557,0,0,0,.165.4.564.564,0,0,0,.4.165H28.659a.571.571,0,0,0,.4-.167.564.564,0,0,0,.164-.4v-7.2a.564.564,0,0,0-.164-.4.571.571,0,0,0-.4-.167H7.522Zm50.1,0a.567.567,0,0,0-.568.568v7.2a.565.565,0,0,0,.568.568H78.764a.558.558,0,0,0,.4-.165.564.564,0,0,0,.165-.4v-7.2a.567.567,0,0,0-.165-.4.561.561,0,0,0-.4-.166Zm34.236,0a.568.568,0,0,0-.568.568v7.194a.568.568,0,0,0,.568.568H113a.564.564,0,0,0,.568-.568V36.487a.567.567,0,0,0-.165-.4.561.561,0,0,0-.4-.166Zm50.1,0a.558.558,0,0,0-.4.166.565.565,0,0,0-.166.4v7.189a.562.562,0,0,0,.166.4.568.568,0,0,0,.4.165H163.1a.569.569,0,0,0,.568-.568l0-7.189a.569.569,0,0,0-.568-.568H141.962Z" transform="translate(1052.765 359.836)" fill="#ffab2b" opacity="0.1"/>
    <path id="Path-2" data-name="Path" d="M36.491,16.22a12.153,12.153,0,0,0-7.054.766,10.394,10.394,0,0,1-8.51-.021,11.871,11.871,0,0,0-9.961.2,6.2,6.2,0,0,1-2.869.715C4.059,17.878.7,13.81,0,8.442A7.744,7.744,0,0,0,2.019,6.268C4.387,2.452,8.055,0,12.174,0s7.74,2.423,10.1,6.2a7.786,7.786,0,0,0,6.709,3.685h.105C32.331,9.881,35.116,12.46,36.491,16.22Z" transform="translate(1032.57 330.582)" fill="#ffab2b" opacity="0.1"/>
    <path id="Path-3" data-name="Path" d="M48.779,14.361,42.25,18.5l3.963-7.206a6.453,6.453,0,0,0-3.95-1.409h-.105a7.639,7.639,0,0,1-1.354-.1l-2.2,1.4.951-1.725A7.866,7.866,0,0,1,35.68,6.52L31.717,9.044l2.494-4.56A11.592,11.592,0,0,0,25.34,0c-4.118,0-7.786,2.448-10.154,6.263a7.593,7.593,0,0,1-6.73,3.622H8.232C3.685,9.885,0,15.038,0,21.4S3.685,32.912,8.232,32.912a6.146,6.146,0,0,0,2.869-.719A11.871,11.871,0,0,1,21.062,32a10.394,10.394,0,0,0,8.472,0,11.867,11.867,0,0,1,9.877.189,6.163,6.163,0,0,0,2.835.7c4.547,0,8.232-5.157,8.232-11.513a14.622,14.622,0,0,0-1.7-7.016Z" transform="translate(1032.565 315.612)" fill="#ffab2b" opacity="0.1"/>
    <path id="Path-4" data-name="Path" d="M25.517,11.341a8.543,8.543,0,0,0-4.938.534,7.265,7.265,0,0,1-5.931,0,8.312,8.312,0,0,0-6.974.139,4.324,4.324,0,0,1-2.007.5C2.839,12.514.488,9.667,0,5.91A5.5,5.5,0,0,0,1.413,4.387,8.489,8.489,0,0,1,8.518,0,8.431,8.431,0,0,1,15.6,4.337a5.443,5.443,0,0,0,4.694,2.579h.076C22.6,6.907,24.545,8.712,25.517,11.341Z" transform="translate(1237.464 412.101)" fill="#ffab2b" opacity="0.1"/>
    <path id="Path-5" data-name="Path" d="M34.123,10.062l-4.568,2.9,2.772-5.048a4.518,4.518,0,0,0-2.764-.984h-.072a5.422,5.422,0,0,1-.946-.072l-1.552.98.665-1.2a5.548,5.548,0,0,1-2.709-2.057l-2.78,1.75,1.75-3.184A8.076,8.076,0,0,0,17.709,0,8.5,8.5,0,0,0,10.6,4.387,5.309,5.309,0,0,1,5.9,6.911H5.763C2.583,6.911,0,10.516,0,14.967s2.583,8.06,5.763,8.06a4.324,4.324,0,0,0,2.007-.5,8.3,8.3,0,0,1,6.974-.135,7.307,7.307,0,0,0,5.931,0,8.308,8.308,0,0,1,6.911.135,4.354,4.354,0,0,0,1.985.488c3.184,0,5.763-3.6,5.763-8.06A10.243,10.243,0,0,0,34.123,10.062Z" transform="translate(1237.447 401.609)" fill="#ffab2b" opacity="0.1"/>
    <path id="Path-6" data-name="Path" d="M0,11.358a8.548,8.548,0,0,1,4.938.534,7.252,7.252,0,0,0,5.927,0,8.312,8.312,0,0,1,6.974.139,4.337,4.337,0,0,0,2.007.5c2.827,0,5.182-2.848,5.67-6.6A5.439,5.439,0,0,1,24.1,4.4,8.508,8.508,0,0,0,16.986,0,8.435,8.435,0,0,0,9.911,4.337a5.468,5.468,0,0,1-4.7,2.587H5.136C2.9,6.924.946,8.728,0,11.358Z" transform="translate(1013.375 385.201)" fill="#ffab2b" opacity="0.1"/>
    <path id="Path-7" data-name="Path" d="M1.207,10.066l4.568,2.886L3,7.9A4.526,4.526,0,0,1,5.763,6.92h.076a5.468,5.468,0,0,0,.946-.072l1.548.98-.665-1.2a5.557,5.557,0,0,0,2.713-2.057l2.772,1.758L11.4,3.142A8.117,8.117,0,0,1,17.613,0a8.5,8.5,0,0,1,7.109,4.387,5.3,5.3,0,0,0,4.7,2.524h.151c3.184,0,5.763,3.6,5.763,8.055s-2.579,8.06-5.763,8.06a4.35,4.35,0,0,1-2.007-.5,8.3,8.3,0,0,0-6.974-.135,7.3,7.3,0,0,1-5.927,0,8.316,8.316,0,0,0-6.915.135,4.341,4.341,0,0,1-1.985.488c-3.18,0-5.763-3.6-5.763-8.06A10.243,10.243,0,0,1,1.207,10.066Z" transform="translate(1003.553 374.724)" fill="#ffab2b" opacity="0.1"/>
    <path id="Path-8" data-name="Path" d="M0,.248C5.7,3.866,13.9.206,19.636,3.769c1.481.917,2.675,2.267,4.207,3.1a13.594,13.594,0,0,0,6.091,1.262c17.507.677,35.309-4.207,52.379-.261,4.774,1.1,9.444,2.894,14.336,3.155,8.451.459,16.548-3.664,25.008-3.891,12.83-.345,25.437,8.241,37.816,4.854,4.072-1.115,7.807-3.491,12.01-3.891,4.682-.421,9.183,1.62,13.734,2.81,16.14,4.207,32.95-2.608,49.637-3.117,10.882-.332,21.659,2.04,32.533,2.587a194.3,194.3,0,0,0,23.2-.694c2.945-.206,6.028-.459,8.493-2.074s3.979-5.086,2.457-7.61Z" transform="translate(1004.988 546.302)" fill="#3f3d56"/>
    <path id="Path-9" data-name="Path" d="M0,.248C5.7,3.866,13.9.206,19.636,3.769c1.481.917,2.675,2.267,4.207,3.1a13.594,13.594,0,0,0,6.091,1.262c17.507.677,35.309-4.207,52.379-.261,4.774,1.1,9.444,2.894,14.336,3.155,8.451.459,16.548-3.664,25.008-3.891,12.83-.345,25.437,8.241,37.816,4.854,4.072-1.115,7.807-3.491,12.01-3.891,4.682-.421,9.183,1.62,13.734,2.81,16.14,4.207,32.95-2.608,49.637-3.117,10.882-.332,21.659,2.04,32.533,2.587a194.3,194.3,0,0,0,23.2-.694c2.945-.206,6.028-.459,8.493-2.074s3.979-5.086,2.457-7.61Z" transform="translate(1004.988 546.302)" opacity="0.1"/>
    <path id="Path-10" data-name="Path" d="M0,.248C5.7,3.866,13.9.206,19.636,3.769c1.481.917,2.675,2.267,4.207,3.1a13.594,13.594,0,0,0,6.091,1.262c17.507.677,35.309-4.207,52.379-.261,4.774,1.1,9.444,2.894,14.336,3.155,8.451.459,16.548-3.664,25.008-3.891,12.83-.345,25.437,8.241,37.816,4.854,4.072-1.115,7.807-3.491,12.01-3.891,4.682-.421,9.183,1.62,13.734,2.81,16.14,4.207,32.95-2.608,49.637-3.117,10.882-.332,21.659,2.04,32.533,2.587a194.3,194.3,0,0,0,23.2-.694c2.945-.206,6.028-.459,8.493-2.074s3.979-5.086,2.457-7.61Z" transform="translate(1004.988 544.199)" fill="#3f3d56"/>
    <g id="Group" transform="translate(926.615 339.796)" opacity="0.1">
      <path id="Path-11" data-name="Path" d="M13.02,18.954a10.285,10.285,0,0,1-1.359,5.208,10.659,10.659,0,0,1,0,10.415A9.57,9.57,0,0,1,12.687,37.1,191.017,191.017,0,0,1,.03,18.172h0A10.1,10.1,0,0,1,1.359,13.73,10.285,10.285,0,0,1,0,8.522,10.71,10.71,0,0,1,.615,4.9a9,9,0,0,1,.745-1.586A6.12,6.12,0,0,1,6.508,0a6.126,6.126,0,0,1,5.153,3.315,9.372,9.372,0,0,1,.728,1.535,10.781,10.781,0,0,1,.631,3.672,10.285,10.285,0,0,1-1.359,5.208,10.285,10.285,0,0,1,1.359,5.224Z" transform="translate(24.832 134.032)" fill="#3f3d56"/>
      <ellipse id="Oval" cx="6.507" cy="8.522" rx="6.507" ry="8.522" transform="translate(24.832 123.638)" fill="#3f3d56"/>
      <ellipse id="Oval-2" data-name="Oval" cx="6.507" cy="8.522" rx="6.507" ry="8.522" transform="translate(24.832 113.223)" fill="#3f3d56"/>
      <path id="Path-12" data-name="Path" d="M62.384,69.727a31.036,31.036,0,0,1-6.676,19.278A31.183,31.183,0,0,1,37.2,138.882c-.749.151-1.51.269-2.28.362a31.5,31.5,0,0,1-7.151.038q-1.186-.126-2.343-.349a30.834,30.834,0,0,1-9.675-3.538A310.667,310.667,0,0,1,1.108,100.149,31.04,31.04,0,0,1,6.7,89.023,31.208,31.208,0,0,1,1.65,59.741l23.674,7.946L3.123,56.153a31.309,31.309,0,0,1,3.554-5.687,31.183,31.183,0,1,1,51.5-34.893L35.29,32.4,60.108,19.527a31.221,31.221,0,0,1-.6,24.7L41,44.093l17.1,2.81a31.309,31.309,0,0,1-2.427,3.567A31.044,31.044,0,0,1,62.384,69.727Z" transform="translate(0)" fill="#ffab2b"/>
      <path id="Path-13" data-name="Path" d="M62.361,39.033A31.191,31.191,0,0,1,37.2,69.631c-.749.151-1.51.269-2.28.362a31.5,31.5,0,0,1-7.151.038q-1.186-.126-2.343-.349a30.834,30.834,0,0,1-9.675-3.538A310.667,310.667,0,0,1,1.085,30.881a31.04,31.04,0,0,1,5.59-11.126A31.057,31.057,0,0,1,0,.459c0-3.5,59.867,13.974,55.686,19.278a31.036,31.036,0,0,1,6.676,19.3Z" transform="translate(0.022 69.268)" opacity="0.1"/>
    </g>
    <g id="Group-2" data-name="Group" transform="translate(1310.65 373.238)" opacity="0.1">
      <path id="Path-14" data-name="Path" d="M4.417,0C3.2,3.9,1.893,7.761.555,11.538A10.785,10.785,0,0,1,0,8.085C0,4.328,1.851,1.14,4.417,0Z" transform="translate(24.851 111.405)" fill="#3f3d56"/>
      <path id="Path-15" data-name="Path" d="M42.35,44.286c0,7.382-1.489,19.047-4.207,32.39a355.76,355.76,0,0,1-8.9,34.729c-1.22,3.9-2.524,7.761-3.862,11.538-1.535,4.291-3.155,8.463-4.85,12.455A31.3,31.3,0,0,1,6.692,86.7,31.33,31.33,0,0,1,1.644,57.356l23.674,7.963L3.116,53.759a31.41,31.41,0,0,1,3.554-5.7A31.3,31.3,0,0,1,18.92,0,53.654,53.654,0,0,1,39.427,26.892l-4.1,3.054,4.4-2.284a53.393,53.393,0,0,1,2.562,14.012H41.051l1.262.206C42.35,42.675,42.35,43.474,42.35,44.286Z" fill="#ffab2b"/>
      <path id="Path-16" data-name="Path" d="M38.124,9.749a355.76,355.76,0,0,1-8.9,34.729c-1.22,3.9-2.524,7.761-3.862,11.538-1.535,4.291-3.155,8.463-4.85,12.455a31.3,31.3,0,0,1-13.844-48.7A31.17,31.17,0,0,1,0,.457C0-1.646,21.756,3.864,38.124,9.749Z" transform="translate(0.041 66.927)" opacity="0.1"/>
    </g>
    <path id="Path-17" data-name="Path" d="M439.945,136.668v-.2a53.238,53.238,0,0,0-2.562-13.99c-.084-.256-.168-.517-.257-.769a53.424,53.424,0,0,0-90.4-18.224,75.258,75.258,0,0,0-4.253-14.9,239.97,239.97,0,0,1-42.33,1.575A170.955,170.955,0,0,0,326.98,99.9l-.328,1.218a172.512,172.512,0,0,1-30-11.214l-2.907-1.407,3.222.21a240.05,240.05,0,0,0,45.01-1.289,75.76,75.76,0,0,0-13.259-21.034c-24.213-2.436-48.236-7.51-70.669-17.569l.517-1.147c21.836,9.8,45.237,14.834,68.86,17.312A75.684,75.684,0,0,0,207.233,77.733,103.617,103.617,0,0,0,181.473,19.4a242.835,242.835,0,0,1-39.865,12.058,241.459,241.459,0,0,1-62.315,4.952,170.956,170.956,0,0,0,26.837,9.731l-.328,1.218A172.513,172.513,0,0,1,75.81,36.141L72.9,34.734l3.222.21A239.774,239.774,0,0,0,180.6,18.417q-1.872-2.045-3.853-4c-41.4.84-86.49.42-127.31-14.419A103.927,103.927,0,0,0,0,88.565c0,19.513,5.372,46.347,14.723,73.269a311.052,311.052,0,0,0,14.685,35.28c2.856,5.8,5.889,11.428,9.073,16.821h0a190.905,190.905,0,0,0,12.657,18.9q1.237,1.625,2.5,3.192a115.374,115.374,0,0,0,15.766,16.325h0q1.754,1.462,3.529,2.785a67.238,67.238,0,0,0,10.1,6.3,46.607,46.607,0,0,0,19.055,5.158c.522.021,1.047.034,1.569.034v.214H386.333v-.214h.21a14.322,14.322,0,0,0,4.779-.84c9.995-3.541,19.2-17.758,26.85-35.725,1.683-3.986,3.315-8.152,4.85-12.436,1.354-3.78,2.642-7.631,3.862-11.521a354.762,354.762,0,0,0,8.9-34.675c2.7-13.322,4.207-24.969,4.207-32.34C440,138.268,440,137.47,439.945,136.668Z" transform="translate(913 278.514)" fill="#ffab2b" opacity="0.1"/>
    <path id="Path-18" data-name="Path" d="M28,14.313,36.05,9.577a19.4,19.4,0,0,0-4.118-4.926L16.742,9.375l11.9-7A19.35,19.35,0,0,0,0,19.353C0,30.037,8.661,30.407,19.35,30.407s19.35-.37,19.35-11.055A19.262,19.262,0,0,0,37.038,11.5Z" transform="translate(1025.524 518.663)" fill="#ffab2b"/>
    <path id="Path-19" data-name="Path" d="M30.06,12.3a15.042,15.042,0,0,0-2.852-2.238,13.281,13.281,0,0,0-4.7-2.293,35.236,35.236,0,0,0-4.627-.135A10.794,10.794,0,0,1,10.811,4.4,22.088,22.088,0,0,0,7.525.992,7.226,7.226,0,0,0,2.6.088a12.228,12.228,0,0,0-1.455.3A19.287,19.287,0,0,0,0,6.953C0,17.637,8.661,18.007,19.35,18.007c5.187,0,9.894-.088,13.368-1.4l-.58-1.085A15.312,15.312,0,0,0,30.06,12.3Z" transform="translate(1025.511 531.063)" opacity="0.1"/>
    <circle id="Oval-3" data-name="Oval" cx="15.038" cy="15.038" r="15.038" transform="translate(1128.2 315.508)" fill="#3f3d56"/>
    <path id="Path-20" data-name="Path" d="M24.245,9.655c1.552,10.891-.341,22-3.289,32.592a24.2,24.2,0,0,1-2.175,5.733A61.136,61.136,0,0,1,15.1,52.94c-2.524,3.475-4,7.572-5.389,11.627a327.959,327.959,0,0,0-9.6,34.207,2.343,2.343,0,0,0,0,1.46c.366.841,1.476.951,2.389.946l11.8-.063c.421-.808-.358-1.683-.841-2.457-1.683-2.616-.067-6.015,1.418-8.754a94.116,94.116,0,0,0,8.32-21.033,57.031,57.031,0,0,1,2.776-9.141c1.586-3.525,4.072-6.558,6.091-9.856a82.554,82.554,0,0,0,5.759-12.169c2.372-5.8,4.766-11.665,5.7-17.857.879-5.813.446-11.736-.126-17.587A1.111,1.111,0,0,0,42.118,1L26.281.186C23.017.018,22.243-.7,22.739,2.508,23.084,4.9,23.9,7.232,24.245,9.655Z" transform="translate(1110.269 437.542)" fill="#3f3d56"/>
    <path id="Path-21" data-name="Path" d="M24.245,9.655c1.552,10.891-.341,22-3.289,32.592a24.2,24.2,0,0,1-2.175,5.733A61.136,61.136,0,0,1,15.1,52.94c-2.524,3.475-4,7.572-5.389,11.627a327.959,327.959,0,0,0-9.6,34.207,2.343,2.343,0,0,0,0,1.46c.366.841,1.476.951,2.389.946l11.8-.063c.421-.808-.358-1.683-.841-2.457-1.683-2.616-.067-6.015,1.418-8.754a94.116,94.116,0,0,0,8.32-21.033,57.031,57.031,0,0,1,2.776-9.141c1.586-3.525,4.072-6.558,6.091-9.856a82.554,82.554,0,0,0,5.759-12.169c2.372-5.8,4.766-11.665,5.7-17.857.879-5.813.446-11.736-.126-17.587A1.111,1.111,0,0,0,42.118,1L26.281.186C23.017.018,22.243-.7,22.739,2.508,23.084,4.9,23.9,7.232,24.245,9.655Z" transform="translate(1110.269 437.542)" opacity="0.1"/>
    <path id="Path-22" data-name="Path" d="M5.725,1.18C2.507,5.807-.867,11.133.2,16.673c.812,4.207,4.017,7.467,7.042,10.516C19.333,39.329,31.22,52.815,35.334,69.452c1.06,4.3,1.573,8.712,2.486,13.04,1.657,7.866,4.627,15.387,7.572,22.862l7.891,19.918a11.93,11.93,0,0,0,11.4-7.572,4.992,4.992,0,0,1-2.991-1.922c-3.365-4.657-4.055-10.647-4.917-16.325-.955-6.276-2.229-12.5-3.508-18.723L47.613,53.2c-.652-3.176-1.3-6.356-2.154-9.486C42.17,31.593,35.936,20.16,34.973,7.625c-.143-1.842-.231-3.866-1.481-5.233C32.179.949,30.026.709,28.078.6,20.2.091,13.4-.679,5.725,1.18Z" transform="translate(1131.902 419.541)" fill="#3f3d56"/>
    <path id="Path-23" data-name="Path" d="M9.6,2.2a12.561,12.561,0,0,0-2.616-.337A5.435,5.435,0,0,0,2.709,4.2,10.621,10.621,0,0,0,1.561,6.726L.421,10a3.64,3.64,0,0,0-.164,2.945,3.121,3.121,0,0,0,1.531,1.182c2.759,1.228,5.889,1.3,8.876,1.59,2.919.286,5.813.8,8.695,1.338.993.189,1.981.379,2.987.48a35.584,35.584,0,0,0,6.756-.2l2.318-.223a8.346,8.346,0,0,0,2.28-.421,2.873,2.873,0,0,0,1.683-1.51c.572-1.418-.656-3.1-2.158-3.39-.61-.118-1.262-.063-1.859-.143a8.783,8.783,0,0,1-2.036-.61,40.6,40.6,0,0,1-8.569-4.177c-.724-.509-1.481-1.22-1.4-2.1a4.286,4.286,0,0,1,.374-1.089A3.979,3.979,0,0,0,19.767.849c-.143-.387-.421-.8-.812-.841-1.111-.135-.976,1.485-1.14,2.1-.223.841-.627.917-1.418.841C14.126,2.746,11.854,2.633,9.6,2.2Z" transform="translate(1106.772 533.83)" fill="#f2f2f2"/>
    <path id="Path-24" data-name="Path" d="M.045,14.991a7.424,7.424,0,0,0,1.607,4.522,3.517,3.517,0,0,0,1.144.921,4.593,4.593,0,0,0,2.1.332,16.847,16.847,0,0,0,5.843-1.182,16.7,16.7,0,0,1,2.019-.761,22.665,22.665,0,0,1,2.625-.379c3.479-.5,6.533-2.553,9.894-3.592a20.8,20.8,0,0,0,2.945-.967,13.5,13.5,0,0,0,3.462-2.7,8.3,8.3,0,0,0,1.59-1.906,8.351,8.351,0,0,0,.681-3.824,1.089,1.089,0,0,0-.1-.593.883.883,0,0,0-.379-.3A5.492,5.492,0,0,0,30.113,4.5a59.808,59.808,0,0,1-12.426.459,1.8,1.8,0,0,1-1.91-1.089L14.2,1.349C13.75.625,13.034-.2,12.218.045a1.615,1.615,0,0,0-.892,1.683,8.991,8.991,0,0,1,.105,2.036,2.78,2.78,0,0,1-1.346,1.75,8.6,8.6,0,0,1-2.1.808C5.66,6.977,2.96,7.722,1.164,9.43-.157,10.641-.035,13.354.045,14.991Z" transform="translate(1182.735 532.346)" fill="#f2f2f2"/>
    <path id="Path-25" data-name="Path" d="M16.219,18.29a9.746,9.746,0,0,0,2.3-2.5,10.184,10.184,0,0,0,.98-3.454l.66-4.173c.366-2.3.8-4.737,2.33-6.491s4.593-2.381,6.154-.648A5.4,5.4,0,0,1,29.76,3.82a20.334,20.334,0,0,1-4.972,16.826c-1.889,2.07-4.207,3.714-6.2,5.67-1.741,1.683-3.252,3.613-4.859,5.443A67.06,67.06,0,0,1,.487,43.327c.059-3.13.459-6.486,0-9.6-.341-2.246-1.262-3.458.913-4.926C6.448,25.374,11.542,22.269,16.219,18.29Z" transform="translate(1165.744 362.409)" fill="#fbbebe"/>
    <path id="Path-26" data-name="Path" d="M2.945,6.578A7.7,7.7,0,0,1,0,12.4q7.862,2.751,15.509,6.066A5.374,5.374,0,0,1,14.18,14.7a18.983,18.983,0,0,1,2.9-10.138,2.461,2.461,0,0,0,.475-1.338c-.059-.993-1.237-1.451-2.2-1.683A54.2,54.2,0,0,0,5.292.084C3.841.037,2.12-.421,2.448,1.425A20.309,20.309,0,0,1,2.945,6.578Z" transform="translate(1136.601 343.381)" fill="#fbbebe"/>
    <circle id="Oval-4" data-name="Oval" cx="12.296" cy="12.296" r="12.296" transform="translate(1137.387 326.59)" fill="#fbbebe"/>
    <path id="Path-27" data-name="Path" d="M30.023,19.579a14.874,14.874,0,0,0-1.561-2.616,54.425,54.425,0,0,0-7.378-9.048,45.931,45.931,0,0,0-7-5.145A15.9,15.9,0,0,0,9.7.666,17.15,17.15,0,0,0,6.883.283L3.69.023a2.612,2.612,0,0,0-.841.025A1.813,1.813,0,0,0,1.772,2.214,5.331,5.331,0,0,0,3.194,4.452C3.337,10.968.439,17.4.048,23.9-.638,35.282,6.307,45.865,6.862,57.252a3.6,3.6,0,0,1-.16,1.527c-.093.236-.231.45-.337.681a6.657,6.657,0,0,0-.374,2.314,11.753,11.753,0,0,1-3.462,7.412,5.144,5.144,0,0,0,1.952,1.489,35.2,35.2,0,0,0,4.371,1.043c3.719,1.085,7.53,2.179,11.4,1.948a10.054,10.054,0,0,0,.879-3.311c.547-.341,1.178.387,1.262,1.026s-.038,1.384.421,1.847a1.731,1.731,0,0,0,1.6.32,70.663,70.663,0,0,0,6.941-1.628,12.946,12.946,0,0,1,7.037-.025,1.883,1.883,0,0,0-.109-2.061,9.207,9.207,0,0,1-1.106-1.889,4.24,4.24,0,0,1-.135-1.241c0-3.6.74-7.231.038-10.76-.206-1.035-.534-2.044-.745-3.083a26.593,26.593,0,0,1-.3-6.15c.055-2.057-.194-4.282-.236-6.369a20.313,20.313,0,0,0-.168-2.579c-.143-.9-.421-1.771-.5-2.675-.227-2.3.7-4.577.559-6.882C35.454,24.706,31.386,22.805,30.023,19.579Z" transform="translate(1131.833 352.447)" fill="#ff6f61"/>
    <path id="Path-28" data-name="Path" d="M16.6.107c-2.978,7.9-4.434,16.279-5.889,24.6L7.342,44.25A94.563,94.563,0,0,0,5.466,60.933a17.859,17.859,0,0,1-.311,4.694c-.538,1.994-1.876,3.655-2.89,5.468A18,18,0,0,0,.33,83.265c.345,1.746,1.287,3.727,3.058,3.929,1.455.16,2.713-1,3.563-2.192,1.952-2.738,2.919-6.045,3.786-9.3a210.371,210.371,0,0,0,5.834-32.428,31.574,31.574,0,0,1,.585-4.122,29.252,29.252,0,0,1,1.422-4.106q1.931-4.787,3.866-9.574c2.974-7.374,5.965-14.782,10.049-21.6C28.455,2.707,24.252,1.344,20.214.2A11.09,11.09,0,0,0,16.6.107Z" transform="translate(1117.51 370.224)" fill="#fbbebe"/>
    <path id="Path-29" data-name="Path" d="M10.152,9.338c-2.827-.61-5.75-.421-8.636-.492a1.863,1.863,0,0,1-1.161-.3C-.23,8.043.019,7.1.313,6.394l1.4-3.365A4.9,4.9,0,0,1,2.829,1.169a4.745,4.745,0,0,1,2.654-.9,24.048,24.048,0,0,1,9.2.358,11,11,0,0,1,7.1,5.5,3.744,3.744,0,0,1,.076,3.681c-1.094,1.569-3.546,3.323-5.376,2.465C14.287,11.235,12.609,9.86,10.152,9.338Z" transform="translate(1130.954 367.056)" fill="#ff6f61"/>
    <path id="Path-30" data-name="Path" d="M38.682,8.6a12.418,12.418,0,0,0-6.857,1.977A15.038,15.038,0,0,0,17.06,7.119a8.594,8.594,0,1,0-9.927,9.944A15.038,15.038,0,0,0,36,25.514a13.461,13.461,0,0,0,2.7.273c5.931,0,10.743-3.849,10.743-8.594S44.6,8.6,38.682,8.6Z" transform="translate(1117.454 311.208)" fill="#3f3d56"/>
    <path id="Path-31" data-name="Path" d="M4.665,3.374a13.082,13.082,0,0,1-2.7-.273A14.963,14.963,0,0,1,0,7.429a13.507,13.507,0,0,0,2.524.244C8.068,7.673,12.62,4.307,13.2,0A11.851,11.851,0,0,1,4.665,3.374Z" transform="translate(1153.612 329.305)" opacity="0.1"/>
    <path id="Path-32" data-name="Path" d="M23.631,29.471A15.059,15.059,0,0,1,9.253,10a8.594,8.594,0,0,1-7.1-8.463A8.451,8.451,0,0,1,2.287,0,8.594,8.594,0,0,0,7.108,14.3a15.038,15.038,0,0,0,28.726,8.909,15.009,15.009,0,0,1-12.2,6.259Z" transform="translate(1117.458 313.966)" opacity="0.1"/>
    <path id="Rectangle" d="M0,.282A.293.293,0,0,1,.282,0h0V2.049A.293.293,0,0,1,0,2.33H0Z" transform="translate(1195.8 368.443) rotate(35.51)" fill="#3a3768"/>
    <path id="Rectangle-2" data-name="Rectangle" d="M0,.16A.166.166,0,0,1,.16,0h0V.606A.166.166,0,0,1,0,.766H0Z" transform="translate(1189.215 361.509) rotate(35.51)" fill="#3a3768"/>
    <path id="Rectangle-3" data-name="Rectangle" d="M0,.177A.184.184,0,0,1,.177,0h0V1.157A.184.184,0,0,1,0,1.333H0Z" transform="translate(1188.389 362.651) rotate(35.51)" fill="#3a3768"/>
    <path id="Rectangle-4" data-name="Rectangle" d="M0,.168A.175.175,0,0,1,.168,0h0V1.178A.175.175,0,0,1,0,1.346H0Z" transform="translate(1187.35 364.119) rotate(35.51)" fill="#3a3768"/>
    <rect id="Rectangle-5" data-name="Rectangle" width="9.456" height="19.22" rx="2.52" transform="translate(1191.151 360.276) rotate(35.51)" fill="#3a3768"/>
    <rect id="Rectangle-6" data-name="Rectangle" width="9.456" height="19.22" rx="2.52" transform="translate(1191.151 360.276) rotate(35.51)" opacity="0.1"/>
    <rect id="Rectangle-7" data-name="Rectangle" width="9.456" height="19.22" rx="2.52" transform="translate(1190.761 359.493) rotate(35.51)" fill="#3a3768"/>
    <path id="Path-33" data-name="Path" d="M16.411,4.083l-.879-.631-.076.105a.614.614,0,0,1-.841.147L11.8,1.7a.618.618,0,0,1-.143-.862L11.737.73,10.9.141A.749.749,0,0,0,9.848.314L.14,13.922a.753.753,0,0,0,.172,1.047L5.84,18.911a.749.749,0,0,0,1.047-.177L16.6,5.13a.749.749,0,0,0-.185-1.047Z" transform="translate(1180.646 360.539)" fill="#ffab2b"/>
    <path id="Rectangle-8" data-name="Rectangle" d="M0,.269A.28.28,0,0,1,.269,0h.782a.28.28,0,0,1,.269.269H.269A.28.28,0,0,1,0,0Z" transform="translate(1193.531 362.186) rotate(35.51)" fill="#e6e8ec"/>
    <circle id="Oval-5" data-name="Oval" cx="0.151" cy="0.151" r="0.151" transform="translate(1194.642 363.126)" fill="#e6e8ec"/>
  </g>
</svg>
