<svg xmlns="http://www.w3.org/2000/svg" xmlns:xlink="http://www.w3.org/1999/xlink" width="354.452" height="249.89" viewBox="0 0 354.452 249.89">
  <defs>
    <linearGradient id="linear-gradient" x1="1" y1="0.5" x2="0" y2="0.5" gradientUnits="objectBoundingBox">
      <stop offset="0" stop-color="gray" stop-opacity="0.251"/>
      <stop offset="0.54" stop-color="gray" stop-opacity="0.122"/>
      <stop offset="1" stop-color="gray" stop-opacity="0.102"/>
    </linearGradient>
  </defs>
  <g id="undraw_visual_data_b1wx" transform="translate(0 -0.11)">
    <ellipse id="Oval" cx="20.548" cy="5.565" rx="20.548" ry="5.565" transform="translate(286.815 238.87)" fill="#ffab2b" opacity="0.1"/>
    <path id="Path" d="M340.794,217.9c-7.751,6.437-18.782,9.1-29.449,10.783l-1.8.274a336.8,336.8,0,0,1-33.712,3.088c-6.048.293-12.1.5-18.145.685l-4.74.14q-9.232.274-18.5.539-9.073.258-18.145.484-11.619.284-23.239.472-9.073.143-18.145.2-11.622.067-23.239-.045-9.079-.092-18.145-.319-11.626-.3-23.239-.876-7.882-.386-15.754-.927l-2.391-.169C69.629,230.6,46.7,227.688,26.981,218.472l-.532-.252c-.264-.124-.528-.249-.793-.379a71.326,71.326,0,0,1-10.365-6.083C9.463,207.6,4.65,202.517,2.106,196.492c-3.986-9.451-1.878-20.075,2.674-29.316s11.387-17.583,17.3-26.285c1.732-2.549,3.374-5.194,4.9-7.906,9.55-17.006,14.287-36.686,4.275-53.074a72.838,72.838,0,0,0-4.275-6.054,57.379,57.379,0,0,1-6.6-9.9c-3.912-8.208-3.072-17.44-1.646-26.209,1.91-11.659,5.412-24.217,16.356-31.5C46.444-1.319,62.562-.937,76.654,1.784c21.911,4.2,42.135,13,62.55,20.935S181,37.91,203.451,38.69a102.432,102.432,0,0,0,14.446-.526h0a91.542,91.542,0,0,0,18.82-3.967c8.834-2.912,16.872-7.294,22.831-13.383,12.781-13.017,36.8-14,54.117-6.14,16.525,7.5,27.211,23.376,26.422,39.232-.9,17.65-14.1,32.161-26.2,47.045-1.468,1.8-2.916,3.613-4.326,5.436q-1.181,1.526-2.318,3.059h0c-1.327,1.8-2.61,3.617-3.82,5.452-6.182,9.41-10.553,20.712-6.3,30.871,2.388,5.688,6.943,10.028,12.434,13.817,12.3,8.486,29.287,14.2,36.927,26.075C353.069,195.9,350.63,209.719,340.794,217.9Z" transform="translate(0 3.425)" fill="#ffab2b" opacity="0.1"/>
    <g id="Group" transform="translate(145.548)" opacity="0.1">
      <path id="Path-2" data-name="Path" d="M.011,9.38q.019.45.066.88,3.7-1.483,7.255-3.189a5.864,5.864,0,0,0,3.353-1.652c.693-.351,1.384-.718,2.068-1.084a8.572,8.572,0,0,0-.526-.957A6.5,6.5,0,0,0,6.635,0,6.507,6.507,0,0,0,1.277,3.731,11.055,11.055,0,0,0,.011,9.38Z" transform="translate(31.181 165.826)" fill="#3f3d56"/>
      <path id="Path-3" data-name="Path" d="M.01,9.37a11.083,11.083,0,0,0,1.631,5.524,6.514,6.514,0,0,0,5.6,3.368c.155,0,.317-.022.459-.035a5.864,5.864,0,0,0,3.353-1.652,8.117,8.117,0,0,0,1.542-2.035A11.5,11.5,0,0,0,12.23,3.377,6.507,6.507,0,0,0,6.635,0,6.5,6.5,0,0,0,1.28,3.731,11.058,11.058,0,0,0,.01,9.37Z" transform="translate(30.817 154.683)" fill="#3f3d56"/>
      <ellipse id="Oval-2" data-name="Oval" cx="6.925" cy="9.131" rx="6.925" ry="9.131" transform="translate(30.169 143.767) rotate(-1.88)" fill="#3f3d56"/>
      <ellipse id="Oval-3" data-name="Oval" cx="6.925" cy="9.131" rx="6.925" ry="9.131" transform="translate(29.806 132.616) rotate(-1.88)" fill="#3f3d56"/>
      <ellipse id="Oval-4" data-name="Oval" cx="6.925" cy="9.131" rx="6.925" ry="9.131" transform="translate(29.443 121.462) rotate(-1.88)" fill="#3f3d56"/>
      <path id="Path-4" data-name="Path" d="M59.832,53.079a33.229,33.229,0,0,0,2.451-3.907L44,46.767l19.671-.5a33.673,33.673,0,0,0-.228-26.471L37.5,34.447,61.254,15.63a33.065,33.065,0,0,0-58.68,4.876A33.6,33.6,0,0,0,7.7,54.814a33.6,33.6,0,0,0-3.581,6.213L28.128,72.6,2.681,64.924A33.608,33.608,0,0,0,9.049,96.1,33.574,33.574,0,0,0,14.1,141.146a32.995,32.995,0,0,0,44.986-1.5,33.58,33.58,0,0,0,2.077-45.284A33.6,33.6,0,0,0,59.832,53.079Z" transform="translate(0.267 0.11)" fill="#ffab2b"/>
      <path id="Path-5" data-name="Path" d="M0,.545A33.389,33.389,0,0,0,7.768,20.956,33.574,33.574,0,0,0,12.807,66a32.995,32.995,0,0,0,44.986-1.492,33.58,33.58,0,0,0,2.085-45.284C64.137,13.4-.12-3.2,0,.545Z" transform="translate(1.548 75.243)" opacity="0.1"/>
    </g>
    <g id="Group-2" data-name="Group" transform="translate(76.199 108.733)" opacity="0.1">
      <path id="Path-6" data-name="Path" d="M9.12,6.653a5.494,5.494,0,0,1-.048.639Q6.43,6.237,3.88,5.033a4.2,4.2,0,0,1-2.4-1.172Q.735,3.481,0,3.088A6.043,6.043,0,0,1,.376,2.41,4.649,4.649,0,0,1,4.374,0a4.609,4.609,0,0,1,3.82,2.651,7.848,7.848,0,0,1,.926,4Z" transform="translate(18.313 118.424)" fill="#3f3d56"/>
      <path id="Path-7" data-name="Path" d="M9.891,6.665A7.875,7.875,0,0,1,8.732,10.6a4.663,4.663,0,0,1-4,2.405l-.318-.026a4.2,4.2,0,0,1-2.4-1.172,5.748,5.748,0,0,1-1.1-1.45A8.18,8.18,0,0,1,1.16,2.41,4.653,4.653,0,0,1,5.158,0,4.658,4.658,0,0,1,8.993,2.653a7.849,7.849,0,0,1,.9,4.012Z" transform="translate(17.79 110.461)" fill="#3f3d56"/>
      <ellipse id="Oval-5" data-name="Oval" cx="6.507" cy="4.953" rx="6.507" ry="4.953" transform="translate(17.831 115.38) rotate(-88.19)" fill="#3f3d56"/>
      <ellipse id="Oval-6" data-name="Oval" cx="6.507" cy="4.953" rx="6.507" ry="4.953" transform="translate(18.079 107.431) rotate(-88.19)" fill="#3f3d56"/>
      <ellipse id="Oval-7" data-name="Oval" cx="6.507" cy="4.953" rx="6.507" ry="4.953" transform="translate(18.329 99.478) rotate(-88.19)" fill="#3f3d56"/>
      <path id="Path-8" data-name="Path" d="M6.476,37.923a24.228,24.228,0,0,1-1.76-2.782L17.793,33.4,3.72,33.077A23.919,23.919,0,0,1,3.86,14.2L22.427,24.628l-17-13.4A23.755,23.755,0,1,1,43.754,39.1a23.8,23.8,0,0,1,2.569,4.427L29.16,51.8l18.2-5.494a23.91,23.91,0,0,1-4.526,22.232A23.762,23.762,0,0,1,7.086,99.627,23.871,23.871,0,0,1,5.55,67.352a23.876,23.876,0,0,1,.926-29.426Z" transform="translate(0.18 0.211)" fill="#ffab2b"/>
      <path id="Path-9" data-name="Path" d="M48.367.387a23.772,23.772,0,0,1-5.536,14.557A23.762,23.762,0,0,1,7.086,46.037,23.871,23.871,0,0,1,5.55,13.762C2.5,9.609,48.456-2.286,48.367.387Z" transform="translate(0.18 53.801)" opacity="0.1"/>
    </g>
    <g id="Group-3" data-name="Group" transform="translate(242.295 67.637)" opacity="0.1">
      <path id="Path-10" data-name="Path" d="M9.12,6.653a6.216,6.216,0,0,1-.045.639Q6.43,6.237,3.883,5.033a4.215,4.215,0,0,1-2.4-1.172C.987,3.608.49,3.35,0,3.088A6.6,6.6,0,0,1,.376,2.41,4.649,4.649,0,0,1,4.374,0a4.609,4.609,0,0,1,3.82,2.651,7.848,7.848,0,0,1,.926,4Z" transform="translate(18.24 118.408)" fill="#3f3d56"/>
      <path id="Path-11" data-name="Path" d="M9.9,6.665A7.875,7.875,0,0,1,8.736,10.6a4.659,4.659,0,0,1-4,2.405l-.318-.026a4.215,4.215,0,0,1-2.4-1.172,5.85,5.85,0,0,1-1.1-1.45A8.18,8.18,0,0,1,1.16,2.41,4.66,4.66,0,0,1,5.158,0,4.653,4.653,0,0,1,8.993,2.653a7.849,7.849,0,0,1,.9,4.012Z" transform="translate(17.729 110.445)" fill="#3f3d56"/>
      <ellipse id="Oval-8" data-name="Oval" cx="6.507" cy="4.953" rx="6.507" ry="4.953" transform="translate(17.769 115.362) rotate(-88.19)" fill="#3f3d56"/>
      <ellipse id="Oval-9" data-name="Oval" cx="6.507" cy="4.953" rx="6.507" ry="4.953" transform="translate(18.02 107.412) rotate(-88.19)" fill="#3f3d56"/>
      <ellipse id="Oval-10" data-name="Oval" cx="6.507" cy="4.953" rx="6.507" ry="4.953" transform="translate(18.27 99.463) rotate(-88.19)" fill="#3f3d56"/>
      <path id="Path-12" data-name="Path" d="M6.472,37.962A23.512,23.512,0,0,1,4.715,35.18l13.076-1.728L3.718,33.11a23.938,23.938,0,0,1,.137-18.872L22.423,24.661l-17-13.394A23.758,23.758,0,1,1,43.75,39.141a23.782,23.782,0,0,1,2.566,4.427L29.152,51.835l18.2-5.494A23.884,23.884,0,0,1,42.824,68.57,23.759,23.759,0,0,1,7.084,99.661,23.868,23.868,0,0,1,5.552,67.388a23.876,23.876,0,0,1,.926-29.426Z" transform="translate(0.111 0.156)" fill="#ffab2b"/>
      <path id="Path-13" data-name="Path" d="M48.364.388a23.75,23.75,0,0,1-5.539,14.553A23.759,23.759,0,0,1,7.084,46.031,23.868,23.868,0,0,1,5.55,13.76C2.494,9.61,48.447-2.289,48.364.388Z" transform="translate(0.113 53.784)" opacity="0.1"/>
    </g>
    <ellipse id="Oval-11" data-name="Oval" cx="17.979" cy="3.425" rx="17.979" ry="3.425" transform="translate(43.664 235.445)" fill="#ffab2b"/>
    <ellipse id="Oval-12" data-name="Oval" cx="2.14" cy="2.568" rx="2.14" ry="2.568" transform="translate(59.075 235.445)" fill="#3f3d56"/>
    <ellipse id="Oval-13" data-name="Oval" cx="2.14" cy="2.568" rx="2.14" ry="2.568" transform="translate(59.075 232.021)" fill="#3f3d56"/>
    <ellipse id="Oval-14" data-name="Oval" cx="2.14" cy="2.568" rx="2.14" ry="2.568" transform="translate(59.075 228.596)" fill="#3f3d56"/>
    <ellipse id="Oval-15" data-name="Oval" cx="2.14" cy="2.568" rx="2.14" ry="2.568" transform="translate(59.075 225.171)" fill="#3f3d56"/>
    <ellipse id="Oval-16" data-name="Oval" cx="2.14" cy="2.568" rx="2.14" ry="2.568" transform="translate(59.075 221.747)" fill="#3f3d56"/>
    <ellipse id="Oval-17" data-name="Oval" cx="2.14" cy="2.568" rx="2.14" ry="2.568" transform="translate(59.075 218.322)" fill="#3f3d56"/>
    <ellipse id="Oval-18" data-name="Oval" cx="2.14" cy="2.568" rx="2.14" ry="2.568" transform="translate(59.075 214.897)" fill="#3f3d56"/>
    <path id="Path-14" data-name="Path" d="M18.348,16.424a10.306,10.306,0,0,0,.8-1.161l-5.634-.916,6.093.048a10.059,10.059,0,0,0,.2-8.04l-8.177,4.189,7.541-5.485A10.333,10.333,0,0,0,.93,5.933,10.044,10.044,0,0,0,2.2,16.414a10.191,10.191,0,0,0-1.17,1.851l7.314,3.752-7.8-2.584A10.052,10.052,0,0,0,2.2,28.96,10.056,10.056,0,0,0,3.3,42.684a10.369,10.369,0,0,0,13.941,0A10.056,10.056,0,0,0,18.351,28.96a10.054,10.054,0,0,0,0-12.546Z" transform="translate(51.37 178.082)" fill="#ffab2b"/>
    <path id="Path-15" data-name="Path" d="M0,.151A10.225,10.225,0,0,0,2.2,6.5a10.272,10.272,0,1,0,16.154,0C19.724,4.753,0-1,0,.151Z" transform="translate(51.37 200.342)" opacity="0.1"/>
    <path id="Path-16" data-name="Path" d="M17.979,2.8V74.486q-7.81-.384-15.611-.923L0,73.4V2.8A2.806,2.806,0,0,1,.815.819,2.774,2.774,0,0,1,2.782,0H15.2a2.774,2.774,0,0,1,1.967.819A2.806,2.806,0,0,1,17.979,2.8Z" transform="translate(92.466 161.815)" fill="#3f3d56"/>
    <path id="Path-17" data-name="Path" d="M0,123.828V2.81A2.8,2.8,0,0,1,2.782,0H15.2a2.768,2.768,0,0,1,1.967.823,2.825,2.825,0,0,1,.815,1.987V124.144Z" transform="translate(133.562 113.87)" fill="#3f3d56"/>
    <path id="Path-18" data-name="Path" d="M0,99.315V2.818A2.8,2.8,0,0,1,2.782,0H15.2a2.8,2.8,0,0,1,2.782,2.818V99.107Z" transform="translate(174.658 138.699)" fill="#3f3d56"/>
    <path id="Path-19" data-name="Path" d="M17.979,2.807v166.23q-8.99.258-17.979.484V2.807A2.8,2.8,0,0,1,2.782,0H15.2a2.8,2.8,0,0,1,2.782,2.807Z" transform="translate(216.61 67.637)" fill="#3f3d56"/>
    <path id="Path-20" data-name="Path" d="M17.979,2.814V134.588c-5.993.294-11.986.5-17.979.686V2.814A2.8,2.8,0,0,1,2.782,0H15.2A2.8,2.8,0,0,1,17.979,2.814Z" transform="translate(257.705 101.027)" fill="#3f3d56"/>
    <path id="Path-21" data-name="Path" d="M0,94.178,41.31,48.044,82.62,71.27,123.93,0l41.31,34.044" transform="translate(101.027 28.253)" fill="none" stroke="#3f3d56" stroke-linecap="round" stroke-miterlimit="10" stroke-width="7"/>
    <circle id="Oval-19" data-name="Oval" cx="8.99" cy="8.99" r="8.99" transform="translate(92.466 113.87)" fill="#ffab2b"/>
    <circle id="Oval-20" data-name="Oval" cx="8.99" cy="8.99" r="8.99" transform="translate(133.562 67.637)" fill="#ffab2b"/>
    <circle id="Oval-21" data-name="Oval" cx="8.99" cy="8.99" r="8.99" transform="translate(174.658 90.753)" fill="#ffab2b"/>
    <circle id="Oval-22" data-name="Oval" cx="8.99" cy="8.99" r="8.99" transform="translate(216.61 19.692)" fill="#ffab2b"/>
    <circle id="Oval-23" data-name="Oval" cx="8.99" cy="8.99" r="8.99" transform="translate(296.233 95.034)" fill="#ffab2b"/>
    <ellipse id="Oval-24" data-name="Oval" cx="5.993" cy="0.856" rx="5.993" ry="0.856" transform="translate(68.493 229.452)" fill="#ffab2b" opacity="0.1"/>
    <path id="Path-22" data-name="Path" d="M0,1.714s3.45-.1,4.49-.78S9.8-.555,10.058.532s5.183,5.431,1.3,5.46S2.3,5.432,1.263,4.852,0,1.714,0,1.714Z" transform="translate(70.205 223.459)" fill="#a8a8a8"/>
    <path id="Path-23" data-name="Path" d="M11.419,3.9c-3.888.03-9.054-.557-10.094-1.138C.535,2.32.22.733.113,0H0S.217,2.558,1.257,3.139s6.2,1.17,10.094,1.141c1.124,0,1.513-.375,1.491-.92C12.686,3.69,12.258,3.9,11.419,3.9Z" transform="translate(70.205 226.027)" opacity="0.2"/>
    <ellipse id="Oval-25" data-name="Oval" cx="11.13" cy="1.712" rx="11.13" ry="1.712" transform="translate(327.055 237.158)" fill="#ffab2b" opacity="0.1"/>
    <path id="Path-24" data-name="Path" d="M0,3.426s6.212-.194,8.085-1.556,9.555-2.985,10.019-.8,9.339,10.859,2.324,10.918S4.13,10.869,2.26,9.715,0,3.426,0,3.426Z" transform="translate(331.336 226.884)" fill="#a8a8a8"/>
    <path id="Path-25" data-name="Path" d="M20.556,7.79c-7.016.058-16.3-1.117-18.169-2.272C.965,4.632.4,1.451.206,0H0S.394,5.125,2.26,6.287s11.156,2.34,18.169,2.272c2.025,0,2.724-.753,2.686-1.844C22.832,7.364,22.061,7.777,20.556,7.79Z" transform="translate(331.336 230.308)" opacity="0.2"/>
    <path id="Shape" d="M26.277,142.98h0a3.962,3.962,0,0,1-1.608-.312,2.659,2.659,0,0,1-1.075-.808,2.864,2.864,0,0,1-.381-2.38,1.993,1.993,0,0,1,.577-1.063,2.559,2.559,0,0,1,1.386-.452,2.812,2.812,0,0,0,1.211-.318.916.916,0,0,0,.275-.29c-.35-.348-.685-.7-1-1.056.275-.113.353-.513.374-.742a26.041,26.041,0,0,0-.935-8.028c-.293-1.312-.6-2.668-.788-4.01a26.278,26.278,0,0,1-.152-6.106c.021-.223.046-.45.069-.669.058-.534.117-1.083.137-1.628a23.5,23.5,0,0,0-.826-6.022,24.486,24.486,0,0,1-.838-5.876,11.017,11.017,0,0,0-.852-3.737c-.209-.595-.426-1.209-.582-1.808a19.689,19.689,0,0,1-.437-4.963L20.759,79.59a15.958,15.958,0,0,1,.568-5.272,6.693,6.693,0,0,0,.228-2.863c-.373-.163-.747-.347-1.109-.525a7.9,7.9,0,0,0-3.376-1.084,3.788,3.788,0,0,0-.382.019c-.46-1.219.064-5.256.517-6.544a28.256,28.256,0,0,0,.951-15.156,11.157,11.157,0,0,1-.13-2.708,10.611,10.611,0,0,0-.158-2.83,3.294,3.294,0,0,0-.476-1.193,1.265,1.265,0,0,0-1.061-.574h-.024c-.007-1.17.025-2.264.1-3.346a7.909,7.909,0,0,1-1.766-2.039,20.9,20.9,0,0,1-1.708-3.9c-.144-.4-.292-.813-.446-1.217-.738-1.945-1.662-3.846-2.555-5.684-.511-1.051-1.039-2.138-1.528-3.224a25.312,25.312,0,0,1-1.516-5.3,33.909,33.909,0,0,0-1.021-4.05A6.962,6.962,0,0,0,2.451,8.169c-.131-.066-.268-.13-.4-.192A3.988,3.988,0,0,1,.685,7.1,2.868,2.868,0,0,1,.05,5.58,4.051,4.051,0,0,1,1.081,2.2a3,3,0,0,1,2.071-.856,2.406,2.406,0,0,1,1.262.343A4.957,4.957,0,0,1,6.066,3.935c.183.39.4.78.6,1.157A9.541,9.541,0,0,1,7.8,7.772a18.309,18.309,0,0,0,2.622,5.793,23.309,23.309,0,0,1,2.322,4.6c.139.421.256.858.369,1.281a10.873,10.873,0,0,0,.947,2.622,12.353,12.353,0,0,0,1.078,1.486,41.954,41.954,0,0,1,4.122,6.312,3.91,3.91,0,0,1,1.567.921c.1.085.21.17.313.25a6.5,6.5,0,0,0,2.537,1.205,2.426,2.426,0,0,1,1.04.382,2.05,2.05,0,0,1,.5.807,2.791,2.791,0,0,0,.353.66,2.29,2.29,0,0,0,.951.636,1.705,1.705,0,0,0,.023-.337c.022-.591.022-1.193.022-1.775a6.7,6.7,0,0,1,.019-8.644,13.094,13.094,0,0,0-.361-2.732,1.221,1.221,0,0,1,.254-1.254,6.665,6.665,0,0,1,.589-.319,2.5,2.5,0,0,0,.635-.807,3.435,3.435,0,0,1,2.814-1.468,3.4,3.4,0,0,1,1.5.348,6.664,6.664,0,0,1,1.745,1.528,10.238,10.238,0,0,0,1.109,1.107,9.9,9.9,0,0,0,.828.587c.272.179.552.364.808.571A6.764,6.764,0,0,1,38.624,25a19.878,19.878,0,0,1,.587,4.088,3.677,3.677,0,0,1-.048,1.241,3.419,3.419,0,0,1-.465.954,10.685,10.685,0,0,1-3.942,3.767,1.025,1.025,0,0,0,0,.246c.015.12.037.233.061.351l.006.03.059-.02a.372.372,0,0,1,.125-.031c.223-.051.455-.083.68-.115a3.752,3.752,0,0,0,1.34-.359,3.867,3.867,0,0,0,1.226-1.362,4.233,4.233,0,0,1,1.126-1.307,1.791,1.791,0,0,1,.266-.147,17.774,17.774,0,0,1,1.021-5.3c.041-.115.083-.231.125-.346a5.578,5.578,0,0,0,.48-2.166,5.7,5.7,0,0,0-.692-2.117l-.075-.157a62.239,62.239,0,0,1-2.827-7.753l-.027-.086c-.523-1.638-1.056-3.324-1.586-5.01a7.869,7.869,0,0,1-1.391-1.327,7.127,7.127,0,0,1-1.615-3.478A4.971,4.971,0,0,1,33.95.913,2.1,2.1,0,0,1,35.438,0a1.944,1.944,0,0,1,1.4.636,6.289,6.289,0,0,1,1.192,2.058,9.311,9.311,0,0,1,1,3.846c-.011.283-.046.579-.08.865a3.355,3.355,0,0,0,.27,2.376,61.327,61.327,0,0,1,4.482,7.833c.29.569.589,1.157.887,1.733a16.523,16.523,0,0,1,1.085,2.4,13.322,13.322,0,0,1,.571,4.135,56.054,56.054,0,0,1-.7,7.835,10.025,10.025,0,0,1-.926,3.439,14.3,14.3,0,0,1,.571,3.865,2.232,2.232,0,0,1-.14.887,3.663,3.663,0,0,1-.7.887,3.952,3.952,0,0,0-.951,3.128,9.051,9.051,0,0,1-.282,3.14c-.622,2.767-1.266,5.629-1.779,8.493a5.358,5.358,0,0,0-.117,1.616,6.161,6.161,0,0,0,.21.858,3.555,3.555,0,0,1,.219,1.414,8.671,8.671,0,0,0-.2,1.091,2.681,2.681,0,0,0,.19.812c.135.4.311.882.514,1.445.855,2.362,2.145,5.929,2.13,7.736-.165-.045-.338-.083-.506-.12a37.65,37.65,0,0,0,1.248,4.7c.393,1.257.8,2.556,1.085,3.86a28.781,28.781,0,0,1,.59,6.4,23.4,23.4,0,0,0,.05,2.892c.054.482.148.967.24,1.435.071.363.144.738.2,1.11a23.682,23.682,0,0,1,.149,3.449,35.744,35.744,0,0,1-.3,5.408,21.071,21.071,0,0,0,.247,6.225c.134.963.273,1.958.346,2.943a55.526,55.526,0,0,0,.733,6.432c.055.282.115.568.173.844.127.605.258,1.231.341,1.854a25.438,25.438,0,0,1,.126,3.642,20.418,20.418,0,0,0,.27,4.479c.036.172.077.35.116.522.255,1.115.518,2.266-.078,3.18a3.881,3.881,0,0,1-.424.517,4.911,4.911,0,0,0-.342.4,1.156,1.156,0,0,0-.222,1.123,1.5,1.5,0,0,0,.247.341,1.13,1.13,0,0,1,.286.454c.109.48-.362.881-.84,1.1a.8.8,0,0,1-.08.033l-.053.021a1.167,1.167,0,0,1-.245.955,1.985,1.985,0,0,1-.973.509l-5.987,1.823a11.077,11.077,0,0,1-3.082.594,4.451,4.451,0,0,1-1.04-.117,1.083,1.083,0,0,1-.238.516,2.013,2.013,0,0,1-.974.509l-5.987,1.82A10.772,10.772,0,0,1,26.277,142.98Zm7.014-56.862a33.686,33.686,0,0,0-.72,8.7,12.98,12.98,0,0,1-.031,2.526,10.921,10.921,0,0,1-.432,1.625c-.114.355-.232.721-.323,1.088a16.109,16.109,0,0,0-.3,4.132c.009.674.018,1.369-.015,2.049-.021.383-.055.773-.087,1.15-.039.443-.078.9-.1,1.352-.157,3.739,1.143,7.465,2.29,10.752a25.457,25.457,0,0,1,1.028,5.091c.075.566.152,1.15.24,1.71l.017.112c.322,2.071.655,4.212.82,6.334q.015.193.03.388c.04.53.081,1.078.145,1.616a5.646,5.646,0,0,1,.635-.1,2.826,2.826,0,0,0,1.211-.319,1.383,1.383,0,0,0,.446-.69c-.153-.169-.272-.31-.374-.442.373-.06.9-.335.9-.764a4.368,4.368,0,0,0-.26-1.193,4.875,4.875,0,0,1-.092-2.122c.05-.273.122-.538.192-.794.059-.216.12-.438.166-.663a14.252,14.252,0,0,0,.19-1.644,27.627,27.627,0,0,1,1.151-5.841,7.718,7.718,0,0,0-.123-3.908c-.113-.562-.229-1.144-.292-1.72-.027-.253-.043-.513-.058-.764a6.765,6.765,0,0,0-.31-1.94,6.52,6.52,0,0,0-.344-.737,6.433,6.433,0,0,1-.341-.733,6.825,6.825,0,0,1,.089-3.721c-1.719-3.134-2.386-6.812-3.031-10.369q-.087-.482-.175-.96l-1.19-6.47A6.081,6.081,0,0,0,33.291,86.117Z" transform="translate(270.548 104.452)" fill="url(#linear-gradient)"/>
    <path id="Path-26" data-name="Path" d="M2.107,1.721A2.587,2.587,0,0,0,.7,2.185,2.025,2.025,0,0,0,.109,3.272,2.941,2.941,0,0,0,.5,5.7a2.692,2.692,0,0,0,1.094.828c1.491.655,3.2.177,4.758-.3l6.094-1.859a2.037,2.037,0,0,0,.991-.52,1.381,1.381,0,0,0,.026-1.591,3.055,3.055,0,0,0-1.291-1.044A14.283,14.283,0,0,0,6.055.028c-.775,0-1.54-.19-2.066.416-.278.327-.226.678-.646.956a2.873,2.873,0,0,1-1.236.321Z" transform="translate(293.664 240.582)" fill="#3f3d56"/>
    <path id="Path-27" data-name="Path" d="M2.107,1.72A2.612,2.612,0,0,0,.7,2.184,2.038,2.038,0,0,0,.109,3.271,2.951,2.951,0,0,0,.5,5.7a2.715,2.715,0,0,0,1.094.825c1.495.655,3.2.18,4.758-.295l6.094-1.863a2.037,2.037,0,0,0,.991-.521,1.377,1.377,0,0,0,.026-1.588,3.065,3.065,0,0,0-1.291-1.044A14.311,14.311,0,0,0,6.051.027c-.775,0-1.536-.187-2.066.419-.278.327-.226.674-.646.953A2.777,2.777,0,0,1,2.107,1.72Z" transform="translate(304.795 237.158)" fill="#3f3d56"/>
    <path id="Path-28" data-name="Path" d="M10.623,1.142a74.465,74.465,0,0,1,10.69-.3,2.132,2.132,0,0,1,.693.108c.785.318.907,1.343.98,2.18.319,3.4,1.807,6.565,2.554,9.894a28.186,28.186,0,0,1,.594,6.365,22.755,22.755,0,0,0,.051,2.864c.1.85.319,1.683.44,2.53a23.162,23.162,0,0,1,.15,3.427,35.057,35.057,0,0,1-.3,5.369c-.492,3.033.367,6.046.6,9.114a54.238,54.238,0,0,0,.725,6.4c.176.894.4,1.779.517,2.68.357,2.676-.166,5.432.4,8.074.262,1.235.734,2.622.038,3.679-.217.318-.536.589-.772.91a1.133,1.133,0,0,0-.223,1.117c.137.29.456.481.536.789.124.487-.386.885-.846,1.092a8.83,8.83,0,0,1-10.265-2.527c.4-.064.894-.353.9-.761a4.285,4.285,0,0,0-.262-1.184,4.76,4.76,0,0,1-.093-2.107c.093-.49.259-.955.361-1.448a14.025,14.025,0,0,0,.192-1.636,27.045,27.045,0,0,1,1.159-5.8c.581-1.83-.211-3.682-.418-5.591a10.951,10.951,0,0,0-.37-2.689c-.192-.5-.5-.955-.689-1.458a6.649,6.649,0,0,1,.089-3.7c-1.886-3.4-2.515-7.443-3.227-11.259l-1.2-6.428a6.307,6.307,0,0,0-.958-2.715,33.05,33.05,0,0,0-.725,8.646,12.691,12.691,0,0,1-.032,2.511c-.147.923-.533,1.792-.76,2.7-.495,2-.2,4.089-.319,6.142-.045.831-.15,1.655-.185,2.485-.156,3.666,1.082,7.23,2.3,10.689a39.376,39.376,0,0,1,1.277,6.756c.319,2.129.674,4.258.843,6.406.156,1.973.227,4.108,1.459,5.658a10.469,10.469,0,0,1-3.607,1.722,6.675,6.675,0,0,1-4.443-.859A13.967,13.967,0,0,1,4.967,68c.259-.089.351-.465.377-.735C5.726,63.239,4.191,59.312,3.61,55.3a25.7,25.7,0,0,1-.153-6.066c.073-.761.179-1.521.207-2.285.153-3.981-1.772-7.816-1.7-11.8.032-1.868-.958-3.707-1.443-5.512a19.89,19.89,0,0,1-.44-4.933L0,11.66A16.082,16.082,0,0,1,.571,6.425c.7-2-.1-4.306-.223-6.425A26.639,26.639,0,0,0,10.623,1.142Z" transform="translate(291.096 172.945)" fill="#696791"/>
    <path id="Path-29" data-name="Path" d="M20.328,29.552a41.171,41.171,0,0,0-4.939-7.636,12.125,12.125,0,0,1-1.1-1.466A20.054,20.054,0,0,1,12.953,16.6c-1.226-3.614-4.284-6.518-5.029-10.255A16.986,16.986,0,0,0,6.162,2.553,4.8,4.8,0,0,0,4.482.341,2.91,2.91,0,0,0,1.091.847,3.892,3.892,0,0,0,.052,4.18,2.791,2.791,0,0,0,.7,5.677a5.649,5.649,0,0,0,1.8,1.058,6.96,6.96,0,0,1,3.471,3.883C7.04,13.667,7.178,16.9,8.546,19.84s2.974,5.769,4.155,8.78a29.939,29.939,0,0,0,2.19,5.055,6.345,6.345,0,0,0,4.374,3.14,10.367,10.367,0,0,1,.526-3.374C20.2,32.2,20.911,30.73,20.328,29.552Z" transform="translate(270.548 106.164)" fill="#a0616a"/>
    <path id="Path-30" data-name="Path" d="M6.867,33.214a16.844,16.844,0,0,1,1.066-6.56,6.589,6.589,0,0,0,.627-2.478,5.924,5.924,0,0,0-.794-2.245,56.2,56.2,0,0,1-2.953-7.725L3.173,9.265a7.858,7.858,0,0,1-1.44-1.31A6.865,6.865,0,0,1,.062,4.527,4.676,4.676,0,0,1,.984.9,2.2,2.2,0,0,1,2.523,0,2.05,2.05,0,0,1,3.967.631,6.174,6.174,0,0,1,5.2,2.658a8.816,8.816,0,0,1,1.03,3.788c-.046,1.092-.469,2.311.2,3.2a75.991,75.991,0,0,1,5.555,9.433,15.678,15.678,0,0,1,1.122,2.365,12.545,12.545,0,0,1,.591,4.085,54.6,54.6,0,0,1-.722,7.725c-.233,1.607-.538,3.356-1.8,4.42A25.43,25.43,0,0,0,6.867,33.214Z" transform="translate(303.082 105.308)" fill="#a0616a"/>
    <circle id="Oval-26" data-name="Oval" cx="6.421" cy="6.421" r="6.421" transform="translate(295.377 126.712)" fill="#a0616a"/>
    <path id="Path-31" data-name="Path" d="M12.348,4.337a9.128,9.128,0,0,0,1.446,3.385c.382.654.87,1.351,1.617,1.423a32.391,32.391,0,0,1-6.1,2.479,6.826,6.826,0,0,1-2.225.363,5.4,5.4,0,0,1-1.853-.481A9.288,9.288,0,0,1,0,5.318a12.03,12.03,0,0,0,2.494-.193,1.826,1.826,0,0,0,1.223-.608,1.98,1.98,0,0,0,.252-1.092C4,2.293,4,1.159,3.968.027A13.123,13.123,0,0,1,8.846.635c.647.213,1.294.468,1.941.634.408.1,1.53,0,1.831.239C13.111,1.845,12.235,3.5,12.348,4.337Z" transform="translate(292.808 136.13)" fill="#a0616a"/>
    <path id="Path-32" data-name="Path" d="M15.683,9.544a4.186,4.186,0,0,1,3.175-3.726,7.386,7.386,0,0,0,2.035-.475c1.048-.587,1.364-2.019,2.37-2.677a2.791,2.791,0,0,1,3.309.539,7.152,7.152,0,0,1,1.677,3.174,16.138,16.138,0,0,1,.859,4.863,2.257,2.257,0,0,1-.141.889,3.707,3.707,0,0,1-.709.889,3.948,3.948,0,0,0-.958,3.136,9.029,9.029,0,0,1-.284,3.145c-.639,2.831-1.278,5.659-1.792,8.515a5.311,5.311,0,0,0-.118,1.6,9.556,9.556,0,0,1,.431,2.279,8.662,8.662,0,0,0-.2,1.094,2.665,2.665,0,0,0,.192.812c.725,2.115,2.683,6.962,2.664,9.2a55.346,55.346,0,0,0-11.93-1.088,26.417,26.417,0,0,0-2.894.128c-2.309.25-4.673.928-6.912.3C4.376,41.569,2.537,39.9.387,40.112c-.466-1.226.083-5.318.521-6.557a28.2,28.2,0,0,0,.958-15.191c-.393-1.817.147-3.746-.291-5.549a3.318,3.318,0,0,0-.479-1.2A1.276,1.276,0,0,0,0,11.042,41.082,41.082,0,0,1,.8,2.4C1.013,1.388,1.441.194,2.473.021c.913-.157,1.68.619,2.415,1.188A6.473,6.473,0,0,0,7.443,2.415,2.417,2.417,0,0,1,8.49,2.8c.438.366.5,1.024.859,1.47.639.8,2.067.732,2.52,1.653a6.318,6.318,0,0,1,.24.841,3.086,3.086,0,0,0,1.054,1.367A5.92,5.92,0,0,0,15.683,9.544Z" transform="translate(286.815 134.418)" fill="#f86d70"/>
    <path id="Path-33" data-name="Path" d="M.061,3.741A1.184,1.184,0,0,1,.31,2.519c.171-.134.4-.184.579-.312a2.494,2.494,0,0,0,.623-.789A3.378,3.378,0,0,1,5.744.342c1.124.589,1.8,1.768,2.8,2.563.508.412,1.1.717,1.607,1.129a6.616,6.616,0,0,1,2.083,3.374,19.171,19.171,0,0,1,.576,3.979,3.585,3.585,0,0,1-.047,1.21,3.389,3.389,0,0,1-.458.936,10.409,10.409,0,0,1-4.079,3.779,6.3,6.3,0,0,1-5.436.094.934.934,0,0,1-.417-.334,1.2,1.2,0,0,1-.065-.72,4.937,4.937,0,0,0-.542-2.76c-.311-.624-.778-1.16-1.027-1.806A6.3,6.3,0,0,1,.447,9.548,24.224,24.224,0,0,0,.061,3.741Z" transform="translate(296.233 122.432)" fill="#2d293d"/>
  </g>
</svg>
