<svg xmlns="http://www.w3.org/2000/svg" xmlns:xlink="http://www.w3.org/1999/xlink" width="531" height="457.309" viewBox="0 0 531 457.309">
  <defs>
    <linearGradient id="linear-gradient" x1="0.477" y1="0.204" x2="0.477" y2="0.944" gradientUnits="objectBoundingBox">
      <stop offset="0" stop-color="#fec6d7"/>
      <stop offset="1" stop-color="#bbcaff"/>
    </linearGradient>
    <linearGradient id="linear-gradient-2" x1="0.004" y1="0.418" x2="1.056" y2="0.599" gradientUnits="objectBoundingBox">
      <stop offset="0" stop-color="#6386ff"/>
      <stop offset="1" stop-color="#3c56c6"/>
    </linearGradient>
    <linearGradient id="linear-gradient-3" x1="0.502" y1="-0.021" x2="0.502" y2="1.021" gradientUnits="objectBoundingBox">
      <stop offset="0" stop-color="#fff"/>
      <stop offset="1" stop-color="#fff" stop-opacity="0"/>
    </linearGradient>
  </defs>
  <g id="scene" transform="translate(-0.502 1.51)">
    <g id="bg" transform="translate(57 91.827)">
      <path id="Shape" d="M236.373,273.641C76.646,309.382,0,296.1,0,205.674c0-278.9,474.5-269.525,474.5,0C474.5,288.954,396.1,237.9,236.373,273.641Z" transform="translate(0 0)" fill="url(#linear-gradient)"/>
    </g>
    <g id="shadows" transform="translate(111.759 440.326)">
      <ellipse id="Oval" cx="60.5" cy="6.5" rx="60.5" ry="6.5" transform="translate(0 0.363)" fill="#414e7c"/>
      <ellipse id="Oval-2" data-name="Oval" cx="40.957" cy="7.736" rx="40.957" ry="7.736" transform="translate(221.55)" fill="#414e7c"/>
    </g>
    <g id="plants" transform="translate(0.502 228.689)">
      <g id="plant_1" data-name="plant 1">
        <path id="Shape-2" data-name="Shape" d="M49,55.894C35.5,20.59,28.5,4.59,0,12.59c32.5-28.5,83.577-6.3,84.414,43.3s-17.223,54.979-17.223,54.979S62.389,90.909,49,55.894Z" transform="translate(0 106.91)" fill="#6386ff"/>
        <path id="Shape-3" data-name="Shape" d="M26.392,124.5C3.424,78.3-14.293,40.986,16.346,0-24.431,61,65.37,99.423,60.059,150.194s-33.667,67.678-33.667,67.678S49.359,170.7,26.392,124.5Z" transform="translate(40.93)" fill="#a0b5ff"/>
      </g>
      <g id="plant_2" data-name="plant 2" transform="translate(389.827 129)">
        <path id="Shape-4" data-name="Shape" d="M35.234,1.358C18.939,6.1,5.04,27.337,0,37.147c10.436-6.3,39.978-13.388,39.978-13.388s31.9-9.648,43.39-17.442C74.261,11.14,55.6-4.575,35.234,1.358Z" transform="translate(7.258 51.853)" fill="#ffe0ea"/>
        <path id="Shape-5" data-name="Shape" d="M22.406,16.838C8.294,28.528,1.817,54.574,0,65.966,8.042,55.439,33.778,35.6,33.778,35.6S61.295,12.389,69.885,0C62.662,8.557,40.046,2.227,22.406,16.838Z" transform="translate(7.258 23.034)" fill="#fec6d7"/>
        <path id="Shape-6" data-name="Shape" d="M3.891,31.228C-4.5,47.5,2.594,76.568,7.258,89,9.791,75.686,27.021,47.588,27.021,47.588S43.127,15.418,45.17,0C42.372,11.019,14.373,10.889,3.891,31.228Z" transform="translate(0)" fill="#f9759c"/>
      </g>
    </g>
    <g id="mailbox" transform="translate(334.094 239.637)">
      <path id="Shape-7" data-name="Shape" d="M0,1.82V37.771H3.185V6.826H13.2a1.82,1.82,0,0,0,1.82-1.82V4.85a1.82,1.82,0,0,0-.533-1.287L11.455.533A1.824,1.824,0,0,0,10.168,0H1.82A1.82,1.82,0,0,0,0,1.82Z" transform="translate(35.496)" fill="#3c56c6"/>
      <path id="Shape-8" data-name="Shape" d="M0,0H10.011V144.714s-1.365.91-5.006.91S0,144.714,0,144.714Z" transform="translate(34.586 61.435)" fill="#b2c3ff"/>
      <path id="Shape-9" data-name="Shape" d="M0,0H47.328a18.2,18.2,0,0,1,18.2,18.2V40.957H0Z" transform="translate(13.652 20.478)" fill="#f9759c"/>
      <path id="Shape-10" data-name="Shape" d="M0,15.473a15.472,15.472,0,1,1,30.945,0V40.957H0Z" transform="translate(0 20.478)" fill="#fec6d7"/>
      <rect id="Rectangle-path" width="19.113" height="2.73" rx="1.365" transform="translate(5.461 46.873)" fill="#fce1e9"/>
    </g>
    <g id="character" transform="translate(95.886 155.448)">
      <path id="Shape-11" data-name="Shape" d="M1.77,9.207c.632,1.88,8.03,5.744,10.268,6.266l4.344-3.916c-.131-2.089-3-7.049-3.949-8.615C11.248.984,5.324-1.366,1.77.984S.98,6.858,1.77,9.207Z" transform="translate(0 104.667)" fill="#fcd8e3"/>
      <path id="Shape-12" data-name="Shape" d="M2.586,19.559,1.82,30.49H8.191c0-1.17.165-9.727.975-10.931,1.012-1.5,3.037-7.021,3.543-13.039S7.648,0,5.623,0,.561,5.015.055,8.526C-.35,11.334,1.573,17.051,2.586,19.559Z" transform="translate(108.308 0)" fill="#fcd8e3"/>
      <path id="Shape-13" data-name="Shape" d="M5.4,27.4c0,1.581.536,6.85-1.606,10.538a12.385,12.385,0,0,0,7.122,2.108c2.571,0,6.426-1.9,8.033-3.305L15.928,27.4c1.82-1.916,4.1-7.129,4.1-9.485,0-2.635,0-10.012-1.071-12.646S14.133,0,9.849,0s-7.5,2.108-8.568,5.27A32.009,32.009,0,0,0,.21,17.916C.639,21.288,4.155,25.644,5.4,27.4Z" transform="translate(64.62 50.058)" fill="#fcd8e3"/>
      <path id="Shape-14" data-name="Shape" d="M5.006,0C3.641,0,.455,3.186,0,3.641c0,1.365,4.551,6.826,5.916,6.826s4.551-5.916,4.551-6.826S6.371,0,5.006,0Z" transform="translate(70.081 72.357)" fill="#efc9e3"/>
      <path id="Shape-15" data-name="Shape" d="M3.186,16.383,0,6.371,5.461,0c.607,2.579,1.911,10.649,2.276,13.2S5.006,16.686,3.186,16.383Z" transform="translate(56.884 212.065)" fill="#fcd8e3"/>
      <path id="Shape-16" data-name="Shape" d="M0,15.928.91,0H9.556C8.8,4.247,5.916,15.928,5.006,17.293,4.173,18.542.607,16.686,0,15.928Z" transform="translate(84.644 234.819)" fill="#fcd8e3"/>
      <path id="Shape-17" data-name="Shape" d="M.182,33.221c-1.82-4.005,10.467-20.782,16.383-31.4L51.15,0,59.8,49.6,49.33,94.2c-1.365,2.275-10.012,1.365-9.556-2.275.364-2.913,1.82-33.373,3.185-42.323l-13.2-25.939L18.84,34.586V71.447c-.91,2.731-4.551,3.186-6.371,2.731S2.457,38.227.182,33.221Z" transform="translate(44.415 146.079)" fill="#3c56c6"/>
      <path id="Shape-18" data-name="Shape" d="M26.8,111.493C23.89,111.857,7.992,100.42.408,94.656c-1.82-5.461,2.882-8.344,5.461-9.1L26.8,97.386c1.214-3.489,4-11.468,5.461-15.473,1.82-5.005,11.377-15.472,14.107-18.2,1.821-1.82,7.282-5.309,10.467-6.826,1.365.455,2.731,2.276,7.736,2.276,5.916,0,7.737-4.1,7.737-4.1s5.006,0,6.826-.91S92.333,32.765,93.243,31.4C93.7,27.3,98.249,0,98.249,0a7,7,0,0,0,3.641.91,7.831,7.831,0,0,0,4.1-.91s1.365,31.4,0,35.5S89.147,68.261,85.507,73.267s-4.551,34.131-.91,45.052c-6.826,7.737-11.619,7.737-20.024,7.737-9.1,0-13.8-4.4-15.472-6.371,2.73-6.826,0-34.131,0-34.131C42.882,94.049,29.715,111.129,26.8,111.493Z" transform="translate(11.424 28.67)" fill="#6386ff"/>
      <path id="Shape-19" data-name="Shape" d="M.278,15.576C-.61,13.3.853,2.678,1.556,0l.906.083L7.451.616l1.978,14.96c-.208,2.265-2.169,6.581-4.707,6.348C1.55,21.633,1.388,18.419.278,15.576Z" transform="translate(82.835 250.338)" fill="#f5b4c8"/>
      <path id="Shape-20" data-name="Shape" d="M9.988,2.534c-1.608,1.076-2.436.889-2.649.661C6.638,6.4,2.367,12.723,0,15.14a16.584,16.584,0,0,0,2.017,2.447c.64.683,4.613-.308,7.309-2.666,2.156-1.886,5.532-7.28,6.95-9.741L11.7,0C11.8.4,11.6,1.459,9.988,2.534Z" transform="translate(52.928 224.668)" fill="#f5b4c8"/>
      <path id="Shape-21" data-name="Shape" d="M.552,8.647C-.54,11.923.176,23.209,1.086,27.76c0-9.557,4.472-15.018,10.843-15.018,5.1,0,7.664,6.372,8.726,10.012a12.486,12.486,0,0,1,1.74-7.281c1.457-2.549-.606-9.557-1.82-12.742,0,1.092-1.82,2.275-2.73,2.73C18.573,2.913,16.328.759,15.114,0c-.455,3.641-6.371,6.826-5.006,5.461C11.2,4.369,9.653,1.366,8.743,0,8.288,2.276,1.917,4.551.552,8.647Z" transform="translate(63.534 38.226)" fill="#3c56c6"/>
    </g>
    <g id="card" transform="translate(138.155 0.799)">
      <path id="Shape-22" data-name="Shape" d="M98.334.759,2.034,64.7a4.551,4.551,0,0,0-.181,7.456l133.864,98.555a4.551,4.551,0,0,0,5.375.015l98.514-71.663a4.551,4.551,0,0,0-.151-7.465L103.378.765A4.553,4.553,0,0,0,98.334.759Z" transform="translate(48.826 51.1)" fill="#8798d1"/>
      <path id="Shape-23" data-name="Shape" d="M98.334.759,2.034,64.7a4.551,4.551,0,0,0-.181,7.456l133.864,98.555a4.551,4.551,0,0,0,5.375.015l98.514-71.663a4.551,4.551,0,0,0-.151-7.465L103.378.765A4.553,4.553,0,0,0,98.334.759Z" transform="translate(48.273 47.963)" fill="url(#linear-gradient-2)"/>
      <path id="Shape-24" data-name="Shape" d="M97.513,75.941.748,3.367a1.871,1.871,0,0,1,2.234-3l97.289,71.871a2.309,2.309,0,1,1-2.758,3.7Z" transform="translate(78.659 113.468)" fill="rgba(255,255,255,0.2)"/>
      <path id="Shape-25" data-name="Shape" d="M50.64,40.47.755,3.376A1.873,1.873,0,0,1,2.97.355L53.354,36.768a2.3,2.3,0,1,1-2.714,3.7Z" transform="translate(89.591 106.179)" fill="rgba(255,255,255,0.2)"/>
      <path id="Shape-26" data-name="Shape" d="M42.7,15.791,21.622.681A3.64,3.64,0,0,0,17.511.592L1.65,10.95a3.641,3.641,0,0,0-.194,5.961L22.5,32.694a3.64,3.64,0,0,0,4.26.079l15.9-11.032A3.64,3.64,0,0,0,42.7,15.791Z" transform="translate(113.74 73.75)" fill="#8798d1"/>
      <path id="Shape-27" data-name="Shape" d="M15.619.464,1.208,10.137a2.731,2.731,0,0,0-.1,4.462L20.864,29.217a2.731,2.731,0,0,0,3.118.091L38.8,19.623a2.729,2.729,0,0,0,.108-4.5L18.743.519A2.731,2.731,0,0,0,15.619.464Z" transform="translate(115.776 75.398)" fill="#ffcbda"/>
      <path id="Shape-28" data-name="Shape" d="M18.171,26.3h0L0,12.894,4.672,9.8l18.17,13.409L18.171,26.3Zm13.5-8.252h0L12.978,4.126,18.689,0,37.9,13.926l-6.228,4.126Z" transform="translate(116.364 76.347)" fill="none" stroke="rgba(255,255,255,0.3)" stroke-miterlimit="10" stroke-width="0.91"/>
      <path id="Shape-29" data-name="Shape" d="M40.49,14.652,19.077.5a3,3,0,0,0-3.408.07L1.246,10.965a3,3,0,0,0,.06,4.909L22.02,30.047a3,3,0,0,0,3.4,0L40.538,19.625A3,3,0,0,0,40.49,14.652Z" transform="translate(226.779 126.846)" fill="url(#linear-gradient-3)"/>
      <path id="Path" d="M21.844,5.461,0,0" transform="translate(0 85.554)" fill="none" stroke="#e0dedf" stroke-linecap="round" stroke-linejoin="round" stroke-miterlimit="10" stroke-width="4"/>
      <path id="Path-2" data-name="Path" d="M9.556,14.107,0,0" transform="translate(46.418 35.496)" fill="none" stroke="#e0dedf" stroke-linecap="round" stroke-linejoin="round" stroke-miterlimit="10" stroke-width="4"/>
      <path id="Path-3" data-name="Path" d="M2.73,15.927,0,0" transform="translate(123.326)" fill="none" stroke="#e0dedf" stroke-linecap="round" stroke-linejoin="round" stroke-miterlimit="10" stroke-width="4"/>
      <path id="Path-4" data-name="Path" d="M0,12.287,5.461,0" transform="translate(221.167 9.102)" fill="none" stroke="#e0dedf" stroke-linecap="round" stroke-linejoin="round" stroke-miterlimit="10" stroke-width="4"/>
      <path id="Path-5" data-name="Path" d="M0,10.922,12.742,0" transform="translate(273.501 49.603)" fill="none" stroke="#e0dedf" stroke-linecap="round" stroke-linejoin="round" stroke-miterlimit="10" stroke-width="4"/>
      <path id="Path-6" data-name="Path" d="M0,3.185,18.658,0" transform="translate(307.631 109.673)" fill="none" stroke="#e0dedf" stroke-linecap="round" stroke-linejoin="round" stroke-miterlimit="10" stroke-width="4"/>
      <path id="Path-7" data-name="Path" d="M0,0,17.293,6.826" transform="translate(302.625 177.024)" fill="none" stroke="#e0dedf" stroke-linecap="round" stroke-linejoin="round" stroke-miterlimit="10" stroke-width="4"/>
    </g>
  </g>
</svg>
