<svg xmlns="http://www.w3.org/2000/svg" xmlns:xlink="http://www.w3.org/1999/xlink" width="541" height="401" viewBox="0 0 541 401">
  <defs>
    <linearGradient id="linear-gradient" x1="0.541" y1="-0.008" x2="0.541" y2="0.981" gradientUnits="objectBoundingBox">
      <stop offset="0" stop-color="#ffb8cd"/>
      <stop offset="1" stop-color="#6d88ef"/>
    </linearGradient>
    <clipPath id="clip-path">
      <ellipse id="Oval" cx="17.251" cy="41.235" rx="17.251" ry="41.235" transform="translate(0 33.72) rotate(-77.777)" fill="none"/>
    </clipPath>
    <clipPath id="clip-path-2">
      <ellipse id="Oval-2" data-name="Oval" cx="19.905" cy="47.577" rx="19.905" ry="47.577" transform="matrix(0.679, -0.734, 0.734, 0.679, 0, 29.22)" fill="none"/>
    </clipPath>
    <clipPath id="clip-path-3">
      <ellipse id="Oval-3" data-name="Oval" cx="19.905" cy="47.577" rx="19.905" ry="47.577" transform="translate(0 13.11) rotate(-19.227)" fill="none"/>
    </clipPath>
    <linearGradient id="linear-gradient-2" x1="0.111" y1="0.606" x2="1" y2="0.582" gradientUnits="objectBoundingBox">
      <stop offset="0" stop-color="#3c56c6"/>
      <stop offset="1" stop-color="#5c81ff"/>
    </linearGradient>
  </defs>
  <g id="scene" transform="translate(-0.523 -0.874)">
    <g id="bg" transform="translate(98.126 0.874)">
      <path id="Shape" d="M115.5,182.9h0c90.586,0,103.032,118.357,170.028,118.357,50.327,0,87.055-99.523,62.016-177.526C325.736,55.8,275.188,11.167,193.662,1.385,115.5-8,0,30.47,0,110.836,0,182.9,59.293,182.9,115.5,182.9Z" fill="url(#linear-gradient)"/>
    </g>
    <g id="shadows" transform="translate(0.523 364.007)">
      <path id="Shape-2" data-name="Shape" d="M300.025,17.477c0,9.653-67.163,17.477-150.012,17.477S0,27.13,0,17.477,67.163,0,150.013,0,300.025,7.825,300.025,17.477Z" fill="#414e7c"/>
      <path id="Shape-3" data-name="Shape" d="M146.062,16.885C168.156-3.609,117.075.466,91.121.466S0-3.025,0,9.094s27.228,1.731,59.631,7.791C110.551,26.408,119.932,41.123,146.062,16.885Z" transform="translate(306.822 7.768)" fill="#414e7c"/>
    </g>
    <g id="plants" transform="translate(9.262 192.196)">
      <g id="plant_04" transform="translate(370.25 11.405)">
        <path id="Shape-4" data-name="Shape" d="M89.061,18.856c-.072.033-.141.065-.209.1-3.442,1.69-10.157,8.593-11.43,11.02,2.52.115,12.258-.614,15.705-2.3A39.814,39.814,0,0,1,89.776,59.55c-5.225-4.913-12.08-9.43-20.483-10.967A73.492,73.492,0,0,1,86,65.051,39.668,39.668,0,0,1,72.751,75.537q-1.317.646-2.734,1.271c-2.635-6.6-6.894-13.39-13.776-17.757a70.438,70.438,0,0,1,7.8,20.11,86.737,86.737,0,0,1-20.185,4.5c-.332-6.274-1.859-12.783-5.7-18.187a75.171,75.171,0,0,1,.025,18.5c-9.5.124-18.771-1.844-25.963-7.185A14.46,14.46,0,0,0,15.985,59.06,14.476,14.476,0,0,0,0,51.114c.5-8.84,4.817-17.544,10.86-25.178A93.7,93.7,0,0,1,24.7,38.3,44.064,44.064,0,0,0,14.367,21.827,85.617,85.617,0,0,1,30.756,8,94.412,94.412,0,0,1,41.583,27.154c.221-7.975-2.292-15.612-5.674-22.19q.884-.47,1.75-.9A39.655,39.655,0,0,1,54.085,0a94.325,94.325,0,0,1,2.988,21.578C60,14.714,60.6,7.247,60.064.287A39.8,39.8,0,0,1,89.061,18.856Z" transform="translate(66.988)" fill="#97adfb"/>
        <path id="Shape-5" data-name="Shape" d="M10.754,48.768C27.816,19.19,66.429,5.746,82.537,0l1.07,2.179C67.362,6.911,29.824,23.72,14.629,53.356c-13.124,25.6-9.183,51.252-4.223,65.659a2.987,2.987,0,0,1-1.477,3.663A2.8,2.8,0,0,1,5.011,121.1C-.074,106.062-5.177,76.387,10.754,48.768Z" transform="translate(0 54.468)" fill="#97adfb"/>
      </g>
      <g id="plant_03" transform="translate(232.693 108.536)">
        <path id="Shape-6" data-name="Shape" d="M16.795,15.662C36.6-1.834,59.94.261,71.356,0c-1.272,5.668-3.842,9.5-10.64,18.023S42.785,34.8,28.669,34.58C36.332,53.8,3.746,77.461.578,79.99a.375.375,0,0,1-.154.185c-.166.085-.1.019.154-.185C2.076,76.759-7.275,36.928,16.795,15.662Z" transform="translate(0)" fill="#f9759c"/>
      </g>
      <g id="plant_02" transform="translate(0)">
        <path id="Shape-7" data-name="Shape" d="M108.565,158.7c10.51,17.9-12.137,20.876-9.224,25.245,32.527,0,49.284-24.759,39.574-46.606S95.457,103.359,51.279,80.056C10.285,58.433,18.2,22.6,32.164,1.64A1.032,1.032,0,0,0,30.756.188C-13.044,31.341-8.817,91,35.509,112.583,81.378,134.915,98.055,140.8,108.565,158.7Z" transform="translate(0)" fill="rgba(206,206,206,0.2)"/>
      </g>
      <g id="plant_01" transform="translate(6.797 89.28)">
        <g id="Clipped" transform="translate(3.044 64.155)">
          <ellipse id="Oval-4" data-name="Oval" cx="17.251" cy="41.235" rx="17.251" ry="41.235" transform="translate(0 33.72) rotate(-77.777)" fill="none"/>
          <g id="Clipped-2" data-name="Clipped" transform="translate(0)" clip-path="url(#clip-path)">
            <ellipse id="Oval-5" data-name="Oval" cx="17.251" cy="41.235" rx="17.251" ry="41.235" transform="translate(2.672 21.383) rotate(-77.777)" fill="#f9759c"/>
          </g>
        </g>
        <g id="Clipped-3" data-name="Clipped" transform="translate(0 19.563)">
          <ellipse id="Oval-6" data-name="Oval" cx="19.905" cy="47.577" rx="19.905" ry="47.577" transform="matrix(0.679, -0.734, 0.734, 0.679, 0, 29.22)" fill="none"/>
          <g id="Clipped-4" data-name="Clipped" clip-path="url(#clip-path-2)">
            <ellipse id="Oval-7" data-name="Oval" cx="19.905" cy="47.577" rx="19.905" ry="47.577" transform="matrix(0.679, -0.734, 0.734, 0.679, 9.891, 18.53)" fill="#ff9bb9"/>
          </g>
        </g>
        <g id="Clipped-5" data-name="Clipped" transform="translate(30.1)">
          <ellipse id="Oval-8" data-name="Oval" cx="19.905" cy="47.577" rx="19.905" ry="47.577" transform="translate(0 13.11) rotate(-19.227)" fill="none"/>
          <g id="Clipped-6" data-name="Clipped" transform="translate(0)" clip-path="url(#clip-path-3)">
            <ellipse id="Oval-9" data-name="Oval" cx="19.905" cy="47.577" rx="19.905" ry="47.577" transform="translate(14.564 10.197) rotate(-19.227)" fill="#ffb8cd"/>
          </g>
        </g>
      </g>
    </g>
    <g id="character" transform="translate(108.108 158.165)">
      <path id="Shape-8" data-name="Shape" d="M0,12.623V0H6.8L4.706,12.623Z" transform="translate(29.128 205.842)" fill="#ffc6ec"/>
      <path id="Shape-9" data-name="Shape" d="M1.726,13.367,0,.863,6.252,0l-.2,12.77Z" transform="translate(67.967 207.784)" fill="#ffc6ec"/>
      <path id="Shape-10" data-name="Shape" d="M2.92,64.569C3.309,54.471-.478,6.653,2.435,0,6.8.971,12.533,1.457,21.854,1.457A123.469,123.469,0,0,0,41.273,0c4.369,16.363,4.855,55.054,4.855,59.714s2.1,43.711,0,57.142a8.141,8.141,0,0,1-7.282,0c.161-10.356-5.923-49.18-6.312-52.287s-7.12-27.349-10.68-34.954c-.971,4.692-3.4,29.905-3.4,34.954S11.012,99.685,7.29,114.088c-4.37,1.8-7.283,0-7.283,0C-.154,101.789,2.532,74.667,2.92,64.569Z" transform="translate(29.121 95.297)" fill="#3c56c6"/>
      <path id="Shape-11" data-name="Shape" d="M0,6.5A9.963,9.963,0,0,1,4.37,1.643c3.4-1.942,9.709-2.427,11.166,0,1,1.665.97,3.4-1.457,4.855-2.244,1.347-10.3,3.524-10.734,4.612.216.332.267.456.054.243a.209.209,0,0,1-.054-.243C2.776,10.233,1.056,7.906,0,6.5Z" transform="translate(29.128 1.115)" fill="#ffc6ec"/>
      <path id="Shape-12" data-name="Shape" d="M0,5.044A9.991,9.991,0,0,0,4.2,9.98c3.268,1.975,9.338,2.468,10.738,0,.961-1.693.934-3.455-1.4-4.936C11.381,3.674,3.634,1.461,3.217.355c.208-.338.257-.465.051-.248a.223.223,0,0,0-.051.248C2.669,1.246,1.016,3.612,0,5.044Z" transform="translate(100.008 106.949)" fill="#ffc6ec"/>
      <path id="Shape-13" data-name="Shape" d="M3.4,27.672V36.9a11.923,11.923,0,0,0,6.311,1.456c3.884,0,5.5-.971,6.311-1.456l-1.456-4.37c.324-.323.1,0,2.427,0s5.581-5.728,5.341-10.339c-.123-2.342-.971-2.38-.971-6.652C21.361,4.855,16.02,0,8.738,0S0,11.652,0,14.079,3.4,23.789,3.4,27.672Z" transform="translate(39.324 1.6)" fill="#ffc6ec"/>
      <path id="Shape-14" data-name="Shape" d="M11.651,31.7c-2.33.777-4.531,1.636-6.311,1.312-1.456,0-2.128-6.367-3.4-9.224A27.114,27.114,0,0,1,0,12.281C0,9.368,1.456,0,11.651,0c8.156,0,5.826,1.942,15.05,0,1.457,8.253-2.233,13.69-5.34,14.079S15.535,19.9,15.05,21.361C13.641,25.586,13.982,30.923,11.651,31.7Z" transform="translate(37.867)" fill="#f9759c"/>
      <path id="Shape-15" data-name="Shape" d="M0,29.129C0,41.266,20.228,46.462,30.585,55.686c0,0,1.185,12.4,1.456,18.449.377,8.409-1.456,21.5-1.456,21.5,2.427,10.195,10.292,11.166,20.39,11.166S69.423,96.125,71.851,95.64c-.971-7.93-4.661-29.953-3.884-28.788.971,1.457,7.237,14,14.564,23.447a95.3,95.3,0,0,0,16.992,16.507l4.854-4.855S89.991,83.887,86.9,77.191c-5.825-12.622-8.544-25.147-11.651-32.527S60.361,32.851,55.83,32.042c0,0-7.282,2.913-13.108,0-12.623,3.74-19.578-1.654-28.158-4.513.971-4.37,19.905-21.217,19.905-21.217L30.1,0S0,17.963,0,29.129Z" transform="translate(0 5.969)" fill="#6386ff"/>
      <path id="Shape-16" data-name="Shape" d="M6.8,0c-2.428,1.313-5.34,0-5.34,0C.976,2.266,0,6.991,0,7.768c0,.971-.485,3.4,8.253,3.4S17,9.224,17,7.768s-.971-2.913-4.369-2.913C9.909,4.855,8.582,1.619,6.8,0Z" transform="translate(27.667 216.181)" fill="#b2c3ff"/>
      <path id="Shape-17" data-name="Shape" d="M5.289,0A4.79,4.79,0,0,1,1.006.369C.505,2.9-.365,8.238.165,9.384c.663,1.434,7.129,1.374,9.806,1.143s10.707-.922,10.537-2.9S17,4.457,14.322,4.687C12.18,4.872,7.408,1.639,5.289,0Z" transform="translate(68.65 219.54)" fill="#b2c3ff"/>
    </g>
    <g id="wallet" transform="translate(194.229 29.298)">
      <path id="Shape-18" data-name="Shape" d="M11.767,12.28C18.512,9.113,51.608,1.064,64.935.021c13.491-1.056,14.528,38.731,0,40.315-7.807.851-37.084,6.787-46.423,9.426S1.636,44.128.352,34.981C-1.724,20.2,5.808,15.078,11.767,12.28Z" transform="translate(0 95.203)" fill="#3c56c6"/>
      <path id="Shape-19" data-name="Shape" d="M187.306.568C175.672,2.823,67.479,27,7.836,40.037A9.964,9.964,0,0,0,0,49.8v142.64a10,10,0,0,0,12.139,9.769L189.849,163.3a10,10,0,0,0,7.861-9.735L198.2,5.847C198.2,2.68,198.2-1.544,187.306.568Z" transform="translate(39.682)" fill="url(#linear-gradient-2)"/>
      <path id="Shape-20" data-name="Shape" d="M0,207.462V61.265a9.908,9.908,0,0,1,5.952-9.132C24.48,44.079,82.406,19.062,124.545,2.644,129.974.529,130.526,0,130.526,0c0,4.183.427,126.045.53,155.459a9.941,9.941,0,0,1-5.759,9.051L14.241,216.518A10,10,0,0,1,0,207.462Z" transform="translate(107.776 5.328)" fill="#6386ff"/>
      <path id="Shape-21" data-name="Shape" d="M35.76.743,6.241,12.718A10,10,0,0,0,0,21.985V44.524a10,10,0,0,0,13.685,9.3L43.2,42.121a10,10,0,0,0,6.315-9.3V10.01A10,10,0,0,0,35.76.743Z" transform="translate(139.817 93.051)" fill="#9ab0ff"/>
      <ellipse id="Oval-10" data-name="Oval" cx="10.144" cy="13.069" rx="10.144" ry="13.069" transform="translate(155.469 106.098) rotate(5.56)" fill="#e0e7ff"/>
    </g>
  </g>
</svg>
