<svg xmlns="http://www.w3.org/2000/svg" xmlns:xlink="http://www.w3.org/1999/xlink" width="40" height="40" viewBox="0 0 40 40">
  <defs>
    <clipPath id="clip-path">
      <circle id="Mask" cx="20" cy="20" r="20" fill="#795157"/>
    </clipPath>
  </defs>
  <g id="Group_273" data-name="Group 273" transform="translate(-879 -238)">
    <g id="Ico" transform="translate(879 238)">
      <g id="bg">
        <circle id="Mask-2" data-name="Mask" cx="20" cy="20" r="20" fill="#795157"/>
      </g>
    </g>
    <path id="Path_742" data-name="Path 742" d="M15.189,0a2.041,2.041,0,0,0-2.105,1.956V20.044A2.041,2.041,0,0,0,15.189,22h9.789a2.041,2.041,0,0,0,2.105-1.956V1.956A2.041,2.041,0,0,0,24.979,0H15.189Zm3.721,1.883h2.347a.332.332,0,0,1,.279.367.332.332,0,0,1-.279.367H18.911a.332.332,0,0,1-.279-.367A.332.332,0,0,1,18.911,1.883ZM14.24,4.5H25.928v13H14.24V4.5ZM20.084,18.54h0a1.26,1.26,0,0,1,1.3,1.211h0a1.26,1.26,0,0,1-1.3,1.211h0a1.26,1.26,0,0,1-1.3-1.211h0a1.26,1.26,0,0,1,1.3-1.211Z" transform="translate(878.916 247)" fill="#fff"/>
  </g>
</svg>
