<svg xmlns="http://www.w3.org/2000/svg" width="15" height="15" viewBox="0 0 15 15">
  <path id="ico" d="M7.5,15a7.463,7.463,0,0,1-2.876-.55A7.5,7.5,0,0,1,2.2,12.8,7.5,7.5,0,0,1,.55,10.376,7.462,7.462,0,0,1,0,7.5,7.463,7.463,0,0,1,.55,4.624,7.5,7.5,0,0,1,2.2,2.2,7.5,7.5,0,0,1,4.624.55,7.463,7.463,0,0,1,7.5,0a7.462,7.462,0,0,1,2.876.55A7.5,7.5,0,0,1,12.8,2.2a7.5,7.5,0,0,1,1.65,2.425A7.463,7.463,0,0,1,15,7.5a7.462,7.462,0,0,1-.55,2.876A7.5,7.5,0,0,1,12.8,12.8a7.5,7.5,0,0,1-2.425,1.65A7.462,7.462,0,0,1,7.5,15Zm0-13.846a6.346,6.346,0,0,0-2.439.464A6.322,6.322,0,0,0,3.011,3.011,6.322,6.322,0,0,0,1.618,5.062,6.346,6.346,0,0,0,1.154,7.5a6.346,6.346,0,1,0,12.692,0,6.028,6.028,0,0,0-1.875-4.471A6.238,6.238,0,0,0,9.934,1.623,6.256,6.256,0,0,0,7.5,1.154Zm.577,9.808H6.923V8.077H4.038V6.923H6.923V4.038H8.077V6.923h2.885V8.077H8.077v2.884Z" fill="#98a9bc"/>
</svg>
