<svg id="Group_304" data-name="Group 304" xmlns="http://www.w3.org/2000/svg" width="20" height="20" viewBox="0 0 20 20">
  <path id="Path_750" data-name="Path 750" d="M17.154,15.431V12.8c0-.658-.138-.789-.769-.789L15.359,12c-.61,0-.769.147-.769.789v2.632c0,.648.128.789.769.789h1.026C17.025,16.211,17.154,16.079,17.154,15.431Zm10.256,0V12.8c0-.658-.138-.789-.769-.789L25.615,12c-.61,0-.769.147-.769.789v2.632c0,.648.128.789.769.789h1.026C27.282,16.211,27.41,16.079,27.41,15.431ZM18.179,22.8V21.747c0-.658-.138-.789-.769-.789l-1.026-.01c-.61,0-.769.147-.769.789v1.053c0,.648.128.789.769.789H17.41C18.051,23.579,18.179,23.447,18.179,22.8Zm4.1,0V21.747c0-.658-.138-.789-.769-.789l-1.026-.01c-.61,0-.769.147-.769.789v1.053c0,.648.128.789.769.789h1.026C22.154,23.579,22.282,23.447,22.282,22.8Zm4.1,0V21.747c0-.658-.138-.789-.769-.789l-1.026-.01c-.61,0-.769.147-.769.789v1.053c0,.648.128.789.769.789h1.026C26.256,23.579,26.384,23.447,26.384,22.8ZM18.179,27.01V25.958c0-.658-.138-.789-.769-.789l-1.026-.01c-.61,0-.769.147-.769.789V27c0,.648.128.789.769.789H17.41C18.051,27.789,18.179,27.658,18.179,27.01Zm4.1,0V25.958c0-.658-.138-.789-.769-.789l-1.026-.01c-.61,0-.769.147-.769.789V27c0,.648.128.789.769.789h1.026C22.154,27.789,22.282,27.658,22.282,27.01Zm4.1,0V25.958c0-.658-.138-.789-.769-.789l-1.026-.01c-.61,0-.769.147-.769.789V27c0,.648.128.789.769.789h1.026C26.256,27.789,26.384,27.658,26.384,27.01ZM12.538,32H29.461c1.234,0,1.523-.255,1.538-1.579V15.158c0-1.237-.195-1.579-1.538-1.579H28.436v2.9c0,.648-.641.779-1.282.779H24.59c-.641,0-.769-.142-.769-.789V13.579H18.179v2.9c0,.648-.128.779-.769.779H14.333c-.641,0-.769-.142-.769-.789V13.579H12.538c-1.323,0-1.538.295-1.538,1.579V30.421C10.995,31.7,11.3,32,12.538,32Zm1.026-13.158H28.436V29.368H13.564Z" transform="translate(-11 -12)" fill="#778ca2" fill-rule="evenodd"/>
</svg>
