<svg xmlns="http://www.w3.org/2000/svg" width="26.005" height="26.005" viewBox="0 0 26.005 26.005">
    <g id="noun_dashboard_249566" transform="translate(0 0.001)">
        <g id="Group_57" data-name="Group 57" transform="translate(0 -0.001)">
            <path id="Path_50" data-name="Path 50" d="M13,1004.361a13,13,0,1,0,13,13A13.011,13.011,0,0,0,13,1004.361Zm0,1.083a11.919,11.919,0,1,1-11.919,11.919A11.911,11.911,0,0,1,13,1005.445Z" transform="translate(0 -1004.361)" fill="#778ca2" />
            <path id="Path_51" data-name="Path 51" d="M15.752,1010.361a9.751,9.751,0,0,0-8.886,13.767.542.542,0,0,0,.712.272l2.434-1.076a.542.542,0,1,0-.438-.99l-1.858.822a8.617,8.617,0,1,1,16.074,0l-1.859-.822a.542.542,0,1,0-.438.99l2.433,1.077a.542.542,0,0,0,.713-.273,9.751,9.751,0,0,0-8.886-13.767Z" transform="translate(-2.75 -1007.111)" fill="#778ca2" />
            <path id="Path_52" data-name="Path 52" d="M22.167,1026.361a2.167,2.167,0,1,0,2.167,2.167A2.175,2.175,0,0,0,22.167,1026.361Zm0,1.083a1.083,1.083,0,1,1-1.084,1.083A1.075,1.075,0,0,1,22.167,1027.445Z" transform="translate(-9.165 -1014.443)" fill="#778ca2" />
            <path id="Path_53" data-name="Path 53" d="M19.542,1038.361a.542.542,0,0,0-.542.542v2.167a.542.542,0,0,0,.542.542h4.334a.542.542,0,0,0,.542-.542V1038.9a.542.542,0,0,0-.542-.542Zm.542,1.083h3.251v1.084H20.084Z" transform="translate(-8.706 -1019.941)" fill="#778ca2" />
            <path id="Path_54" data-name="Path 54" d="M28.568,1021.361,25,1024.929l.766.766,3.568-3.568Z" transform="translate(-11.456 -1012.151)" fill="#778ca2" fill-rule="evenodd" />
            <path id="Path_55" data-name="Path 55" d="M30.7,1020.363a.542.542,0,0,0-.372.164l-2.156,2.155a.542.542,0,1,0,.766.766l2.156-2.155a.542.542,0,0,0-.394-.93Z" transform="translate(-12.835 -1011.694)" fill="#778ca2" fill-rule="evenodd" />
        </g>
    </g>
</svg>