<svg xmlns="http://www.w3.org/2000/svg" xmlns:xlink="http://www.w3.org/1999/xlink" width="1091.5" height="268" viewBox="0 0 1091.5 268">
  <defs>
    <clipPath id="clip-path">
      <circle id="Mask" cx="5" cy="5" r="5" fill="#b800d9"/>
    </clipPath>
    <clipPath id="clip-path-2">
      <circle id="Mask-2" data-name="Mask" cx="5" cy="5" r="5" fill="#02c2fc"/>
    </clipPath>
    <linearGradient id="linear-gradient" x1="0.5" x2="0.5" y2="1" gradientUnits="objectBoundingBox">
      <stop offset="0" stop-color="#b81dd9"/>
      <stop offset="1" stop-color="#5c0f6d" stop-opacity="0"/>
    </linearGradient>
    <linearGradient id="linear-gradient-2" x1="0.5" x2="0.5" y2="1" gradientUnits="objectBoundingBox">
      <stop offset="0" stop-color="#02c2fc"/>
      <stop offset="1" stop-color="#01617e" stop-opacity="0"/>
    </linearGradient>
    <filter id="Oval" x="591.858" y="69" width="36" height="36" filterUnits="userSpaceOnUse">
      <feOffset dy="2" input="SourceAlpha"/>
      <feGaussianBlur stdDeviation="3" result="blur"/>
      <feFlood flood-opacity="0.125"/>
      <feComposite operator="in" in2="blur"/>
      <feComposite in="SourceGraphic"/>
    </filter>
    <filter id="bg" x="598.872" y="51.5" width="158.486" height="105" filterUnits="userSpaceOnUse">
      <feOffset dy="8" input="SourceAlpha"/>
      <feGaussianBlur stdDeviation="7.5" result="blur-2"/>
      <feFlood flood-color="#98a9bc" flood-opacity="0.267"/>
      <feComposite operator="in" in2="blur-2"/>
      <feComposite in="SourceGraphic"/>
    </filter>
  </defs>
  <g id="Group_317" data-name="Group 317" transform="translate(-295 -158)">
    <g id="Tags_Legeng_tag" data-name="Tags/Legeng tag" transform="translate(296 158)">
      <rect id="bg-2" data-name="bg" width="159" height="36" rx="18" fill="#f8fafb"/>
      <text id="Tag" transform="translate(36 23)" fill="#252631" font-size="13" font-family="NotoSans, Noto Sans"><tspan x="0" y="0">На новую плойку</tspan></text>
      <g id="color" transform="translate(13 13)">
        <circle id="Mask-3" data-name="Mask" cx="5" cy="5" r="5" fill="#b800d9"/>
        <g id="color-2" data-name="color" clip-path="url(#clip-path)">
          <g id="Fills_Yellow" data-name="Fills / Yellow" transform="translate(-3 -4)">
            <rect id="Rectangle_Copy" data-name="Rectangle Copy" width="16" height="18" fill="#b800d9"/>
          </g>
        </g>
      </g>
    </g>
    <g id="Tags_Legeng_tag_Copy" data-name="Tags/Legeng tag Copy" transform="translate(465 158)">
      <rect id="bg-3" data-name="bg" width="153" height="36" rx="18" fill="#f8fafb"/>
      <text id="Tag-2" data-name="Tag" transform="translate(36 23)" fill="#252631" font-size="13" font-family="NotoSans, Noto Sans"><tspan x="0" y="0">На новый айфон</tspan></text>
      <g id="color-3" data-name="color" transform="translate(13 13)">
        <circle id="Mask-4" data-name="Mask" cx="5" cy="5" r="5" fill="#02c2fc"/>
        <g id="color-4" data-name="color" clip-path="url(#clip-path-2)">
          <g id="Fills_Yellow-2" data-name="Fills / Yellow" transform="translate(-3 -4)">
            <rect id="Rectangle_Copy-2" data-name="Rectangle Copy" width="16" height="18" fill="#02c2fc"/>
          </g>
        </g>
      </g>
    </g>
    <text id="_0" data-name="0" transform="translate(317 422)" fill="#252631" font-size="13" font-family="NotoSans, Noto Sans"><tspan x="-7.433" y="0">0</tspan></text>
    <text id="_10k" data-name="10k" transform="translate(317 381)" fill="#252631" font-size="13" font-family="NotoSans, Noto Sans"><tspan x="-21.811" y="0">10k</tspan></text>
    <text id="_20k" data-name="20k" transform="translate(317 343)" fill="#252631" font-size="13" font-family="NotoSans, Noto Sans"><tspan x="-21.811" y="0">20k</tspan></text>
    <text id="_30k" data-name="30k" transform="translate(317 304)" fill="#252631" font-size="13" font-family="NotoSans, Noto Sans"><tspan x="-21.811" y="0">30k</tspan></text>
    <text id="_40k" data-name="40k" transform="translate(317 265)" fill="#252631" font-size="13" font-family="NotoSans, Noto Sans"><tspan x="-21.811" y="0">40k</tspan></text>
    <text id="_50k" data-name="50k" transform="translate(317 226)" fill="#252631" font-size="13" font-family="NotoSans, Noto Sans"><tspan x="-21.811" y="0">50k</tspan></text>
    <g id="Lines" transform="translate(341 221)">
      <path id="_6" data-name="6" d="M0,1H1045" transform="translate(0 -1)" fill="none" stroke="#e8ecef" stroke-linecap="square" stroke-miterlimit="10" stroke-width="1" stroke-dasharray="4 4"/>
      <path id="_5" data-name="5" d="M0,1H1045" transform="translate(0 38)" fill="none" stroke="#e8ecef" stroke-linecap="square" stroke-miterlimit="10" stroke-width="1" stroke-dasharray="4 4"/>
      <path id="_4" data-name="4" d="M0,1H1045" transform="translate(0 77)" fill="none" stroke="#e8ecef" stroke-linecap="square" stroke-miterlimit="10" stroke-width="1" stroke-dasharray="4 4"/>
      <path id="_3" data-name="3" d="M0,1H1045" transform="translate(0 116)" fill="none" stroke="#e8ecef" stroke-linecap="square" stroke-miterlimit="10" stroke-width="1" stroke-dasharray="4 4"/>
      <path id="_2" data-name="2" d="M0,1H1045" transform="translate(0 155)" fill="none" stroke="#e8ecef" stroke-linecap="square" stroke-miterlimit="10" stroke-width="1" stroke-dasharray="4 4"/>
      <path id="_1" data-name="1" d="M0,1H1045" transform="translate(0 194)" fill="none" stroke="#e8ecef" stroke-linecap="square" stroke-miterlimit="10" stroke-width="1" stroke-dasharray="4 4"/>
    </g>
    <g id="Graphs" transform="translate(341 236)">
      <path id="Path_3_Copy_2" data-name="Path 3 Copy 2" d="M-5.227,59.415S-34.65,82.514-50.341,73.2s-20.468-39.043-63.4-39.043S-215.2,92.748-248.781,92.748-317.3,36.42-367.347,64.4s-40.714,46.035-80.453,46.035S-522.13-.533-567.19,0c-33.6,0-46.494,105.348-57.7,121.691s-42.5-28.945-97.811-28.945c-48.818,0-95.113-87.2-142.513-87.2s-66.654,92.469-108.706,92.469-41.429-33.625-74.84-33.625" transform="translate(1048.754 28.599)" fill="none" stroke="#b81dd9" stroke-miterlimit="10" stroke-width="2"/>
      <path id="Path_3_Copy_3" data-name="Path 3 Copy 3" d="M-3.873,59.415S-33.334,82.514-49.045,73.2s-20.494-39.043-63.48-39.043S-214.117,92.748-247.743,92.748-316.356,36.42-366.463,64.4s-40.767,46.035-80.557,46.035S-521.447-.533-566.565,0c-33.641,0-46.554,105.348-57.77,121.691s-42.557-28.945-97.938-28.945c-48.881,0-95.237-87.2-142.7-87.2s-66.741,92.469-108.847,92.469S-1015.3,64.4-1048.754,64.4c-.238,57.846,0,88.385,0,88.385H-3.873Z" transform="translate(1048.873 28.219)" opacity="0.15" fill="url(#linear-gradient)"/>
      <path id="Path_3_Copy" data-name="Path 3 Copy" d="M0,113.544s25.373.511,41.064-8.72,74.767-63.8,117.7-63.8S220.3,84.972,253.879,84.972s59.546-7.869,109.589,19.851,40.714,45.613,80.453,45.613S503.859-.529,548.918,0c33.6,0,64.525,88.628,75.727,104.822s48.325,53.934,97.143,53.934S813.933,46.52,861.332,46.52s66.655,91.62,108.706,91.62,41.429-33.316,74.841-33.316c.272,36.063,0,73.176,0,73.176H0Z" transform="translate(0 3)" opacity="0.2" fill="url(#linear-gradient-2)"/>
      <path id="Path_3" data-name="Path 3" d="M0,114.036s25.373.513,41.064-8.758S115.831,41.2,158.76,41.2,220.3,85.341,253.878,85.341s59.546-7.9,109.589,19.937,40.714,45.811,80.453,45.811S503.858-.531,548.918,0c33.6,0,64.525,89.013,75.727,105.277s48.325,54.168,97.143,54.168S813.932,46.722,861.332,46.722s66.655,92.018,108.706,92.018,41.429-33.461,74.84-33.461" transform="translate(0 0)" fill="none" stroke="#02c2fc" stroke-miterlimit="10" stroke-width="2"/>
    </g>
    <g id="Pin" transform="translate(895.858 224)">
      <g id="pin-2" data-name="pin" transform="translate(0 10)">
        <g transform="matrix(1, 0, 0, 1, -600.86, -76)" filter="url(#Oval)">
          <circle id="Oval-2" data-name="Oval" cx="9" cy="9" r="9" transform="translate(600.86 76)" fill="#fff"/>
        </g>
        <path id="Oval_Copy_2" data-name="Oval Copy 2" d="M9,0A9,9,0,1,1,0,9,9,9,0,0,1,9,0Z" fill="#02c2fc" opacity="0.545"/>
        <circle id="Oval_Copy" data-name="Oval Copy" cx="5" cy="5" r="5" transform="translate(4 4)" fill="#02c2fc"/>
      </g>
      <g transform="matrix(1, 0, 0, 1, -600.86, -66)" filter="url(#bg)">
        <path id="bg-4" data-name="bg" d="M8.485,60a2,2,0,0,1-2-2V25.9L.293,19.707a1,1,0,0,1,0-1.415L6.485,12.1V2a2,2,0,0,1,2-2h103a2,2,0,0,1,2,2V58a2,2,0,0,1-2,2Z" transform="translate(621.37 66)" fill="#fff"/>
      </g>
      <text id="August_16" data-name="August 16" transform="translate(44 24)" fill="#252631" font-size="12" font-family="NotoSans, Noto Sans"><tspan x="0" y="0">16 августа</tspan></text>
      <text id="_48.200" data-name="$48.200" transform="translate(44 45)" fill="#252631" font-size="14" font-family="NotoSans-Bold, Noto Sans" font-weight="700"><tspan x="0" y="0">$48.200</tspan></text>
    </g>
  </g>
</svg>
