<svg xmlns="http://www.w3.org/2000/svg" xmlns:xlink="http://www.w3.org/1999/xlink" width="1045.02" height="182" viewBox="0 0 1045.02 182">
  <defs>
    <linearGradient id="linear-gradient" x1="0.5" x2="0.5" y2="1" gradientUnits="objectBoundingBox">
      <stop offset="0" stop-color="#fe5ea1"/>
      <stop offset="1" stop-color="#7f2f51" stop-opacity="0"/>
    </linearGradient>
    <linearGradient id="linear-gradient-2" x1="0.5" x2="0.5" y2="1" gradientUnits="objectBoundingBox">
      <stop offset="0" stop-color="#6dd230"/>
      <stop offset="1" stop-color="#115705" stop-opacity="0"/>
    </linearGradient>
  </defs>
  <g id="Graphs" transform="translate(0.02 1)">
    <path id="Path_3_Copy_2" data-name="Path 3 Copy 2" d="M-5.227,59.415S-34.65,82.514-50.341,73.2s-20.468-39.043-63.4-39.043S-215.2,92.748-248.781,92.748-317.3,36.42-367.347,64.4s-40.714,46.035-80.453,46.035S-522.13-.533-567.19,0c-33.6,0-46.494,105.348-57.7,121.691s-42.5-28.945-97.811-28.945c-48.818,0-95.113-87.2-142.513-87.2s-66.654,92.469-108.706,92.469-41.429-33.625-74.84-33.625" transform="translate(1048.754 28.599)" fill="none" stroke="#fe5ea1" stroke-miterlimit="10" stroke-width="2"/>
    <path id="Path_3_Copy_3" data-name="Path 3 Copy 3" d="M-3.873,59.415S-33.334,82.514-49.045,73.2s-20.494-39.043-63.48-39.043S-214.117,92.748-247.743,92.748-316.356,36.42-366.463,64.4s-40.767,46.035-80.557,46.035S-521.447-.533-566.565,0c-33.641,0-46.554,105.348-57.77,121.691s-42.557-28.945-97.938-28.945c-48.881,0-95.237-87.2-142.7-87.2s-66.741,92.469-108.847,92.469S-1015.3,64.4-1048.754,64.4c-.238,57.846,0,88.385,0,88.385H-3.873Z" transform="translate(1048.873 28.219)" opacity="0.15" fill="url(#linear-gradient)"/>
    <path id="Path_3_Copy" data-name="Path 3 Copy" d="M0,113.544s25.373.511,41.064-8.72,74.767-63.8,117.7-63.8S220.3,84.972,253.879,84.972s59.546-7.869,109.589,19.851,40.714,45.613,80.453,45.613S503.859-.529,548.918,0c33.6,0,64.525,88.628,75.727,104.822s48.325,53.934,97.143,53.934S813.933,46.52,861.332,46.52s66.655,91.62,108.706,91.62,41.429-33.316,74.841-33.316c.272,36.063,0,73.176,0,73.176H0Z" transform="translate(0 3)" opacity="0.2" fill="url(#linear-gradient-2)"/>
    <path id="Path_3" data-name="Path 3" d="M0,114.036s25.373.513,41.064-8.758S115.831,41.2,158.76,41.2,220.3,85.341,253.878,85.341s59.546-7.9,109.589,19.937,40.714,45.811,80.453,45.811S503.858-.531,548.918,0c33.6,0,64.525,89.013,75.727,105.277s48.325,54.168,97.143,54.168S813.932,46.722,861.332,46.722s66.655,92.018,108.706,92.018,41.429-33.461,74.84-33.461" transform="translate(0 0)" fill="none" stroke="#6dd230" stroke-miterlimit="10" stroke-width="2"/>
  </g>
</svg>
